<svg width="28" height="28" viewBox="0 0 28 28" fill="none" xmlns="http://www.w3.org/2000/svg">
<g clip-path="url(#clip0_2267_2111)">
<path d="M1.56197 3.4637V8.75786H8.84422V1.5531H3.47191C2.96536 1.5531 2.47956 1.7544 2.12138 2.1127C1.76319 2.47101 1.56197 2.95698 1.56197 3.4637Z" fill="white"/>
<path d="M19.1752 26.438H24.5287C24.6519 26.4365 24.7747 26.4239 24.8957 26.4004C25.2607 26.3227 25.5956 26.1414 25.86 25.878C26.2174 25.5193 26.4186 25.0338 26.4199 24.5274V19.158H19.1752V26.438Z" fill="white"/>
<path d="M17.7025 19.158H10.3214V26.438H17.7025V19.158Z" fill="white"/>
<path d="M26.434 10.2351H19.1752V17.6187H26.434V10.2351Z" fill="white"/>
<path d="M17.7025 1.5531H10.3214V8.75786H17.7025V1.5531Z" fill="white"/>
<path d="M8.84422 10.235H1.56197V17.6186H8.84422V10.235Z" fill="white"/>
<path d="M27.3508 1.45413C27.2124 1.26716 27.0547 1.09524 26.8804 0.941183C26.2917 0.383327 25.5257 0.0501872 24.7164 0C24.6458 0 24.58 0 24.5094 0H3.47177C3.40121 0 3.33535 0 3.26479 0C2.38199 0.0504764 1.55195 0.43691 0.944895 1.08005C0.337836 1.7232 -0.000239367 2.57431 1.27158e-07 3.45885V24.5319C0.00124474 25.4514 0.366924 26.3328 1.01686 26.983C1.66679 27.6332 2.54793 27.999 3.46707 28.0002H24.5329C25.4525 27.9977 26.3336 27.6309 26.9834 26.98C27.6332 26.3291 27.9988 25.4471 28 24.5272V3.46355C27.9983 2.74243 27.7713 2.03986 27.3508 1.45413ZM8.84409 17.6142H1.56183V10.2354H8.84409V17.6142ZM8.84409 8.75771H1.56183V3.46355C1.56183 2.95683 1.76305 2.47086 2.12124 2.11256C2.47942 1.75425 2.96522 1.55295 3.47177 1.55295H8.84409V8.75771ZM17.7023 26.4378H10.3118V19.1578H17.7023V26.4378ZM17.7023 8.75771H10.3118V1.55295H17.7023V8.75771ZM26.4382 24.5272C26.4369 25.0337 26.2357 25.5191 25.8784 25.8778C25.6087 26.1444 25.2669 26.326 24.8952 26.4002C24.768 26.4248 24.6389 26.4374 24.5094 26.4378H19.1747V19.1578H26.4382V24.5272ZM26.4382 17.6142H19.1747V10.2354H26.4382V17.6142Z" fill="black"/>
</g>
<defs>
<clipPath id="clip0_2267_2111">
<rect width="28" height="28.0002" fill="white"/>
</clipPath>
</defs>
</svg>
