<svg width="72" height="76" viewBox="0 0 72 76" fill="none" xmlns="http://www.w3.org/2000/svg">
<path d="M72 13.116C72 15.3505 71.2552 17.4195 69.931 19.1574L69.8483 19.3229C69.5172 19.7367 69.1862 20.1505 68.7724 20.4815V54.6608C68.7724 57.7229 66.7034 60.3712 63.8069 61.0332C60.9103 61.7781 57.7655 60.4539 56.3586 57.8057L46.0966 38.9367C45.8483 40.7574 45.1862 42.4953 44.0276 43.985L43.9448 44.1505C43.6138 44.5643 43.2 44.9781 42.7034 45.3919V68.9781C42.7034 71.8746 40.8828 74.5229 38.069 75.4332C37.4069 75.6815 36.7448 75.7643 36.0828 75.7643C33.7655 75.7643 31.531 74.5229 30.2897 72.3712L16.5517 47.8746V54.9919C18.5379 56.8126 19.8621 59.4608 19.8621 62.3574C19.8621 67.8195 15.3931 72.2884 9.93104 72.2884C4.46897 72.2884 0 67.8195 0 62.3574C0 59.3781 1.32414 56.7298 3.31034 54.9091V22.8815C3.31034 20.3988 4.55172 17.9988 6.78621 16.8402C10.0966 15.1022 13.9862 16.3436 15.7241 19.4057L25.8207 37.2815C25.9035 35.047 26.731 32.8126 28.2207 31.0746L28.3862 30.9091C28.7172 30.4953 29.131 30.1643 29.5448 29.7505V6.57809C29.5448 3.51602 31.6138 0.867742 34.5103 0.205673C37.4069 -0.539154 40.5517 0.784983 41.9586 3.43326L55.531 28.4264V20.4815C55.0345 19.985 54.5379 19.4884 54.1241 18.9091L53.9586 18.8264C52.8 17.1712 52.1379 15.185 52.1379 13.116C52.1379 7.65395 56.6069 3.18498 62.069 3.18498C67.6138 3.18498 72 7.65395 72 13.116Z" fill="black"/>
<path d="M65.4624 22.3847V54.3295C65.4624 55.5709 64.8831 56.7295 63.8072 57.3916C62.152 58.3847 60.0831 57.7226 59.2555 56.1502L40.4693 21.9709C40.221 21.4744 39.4762 21.6399 39.4762 22.2192V28.0123C37.3244 27.2675 35.0072 27.1847 32.8555 27.9295V6.41229C32.8555 4.92263 33.8486 3.59849 35.3382 3.1847C36.8279 2.85367 38.3175 3.51574 39.0624 4.83987L57.7658 38.9364C58.0141 39.433 58.8417 39.2675 58.8417 38.6881V22.3847C59.9175 22.7985 60.9934 22.964 62.0693 22.964C63.2279 22.964 64.3865 22.7157 65.4624 22.3847Z" fill="#EFC929"/>
<path d="M39.4755 47.2953V69.0609C39.4755 70.5505 38.4824 71.8746 36.9928 72.2884C36.7445 72.3712 36.4135 72.3712 36.1652 72.3712C35.0066 72.3712 33.8479 71.7091 33.2686 70.716L14.3169 37.6126C14.0686 37.116 13.3238 37.2815 13.3238 37.8609V53.0057C12.248 52.5919 11.1721 52.4264 10.0135 52.4264C8.85485 52.4264 7.77899 52.5919 6.70312 53.0057V22.6333C6.70312 21.1436 7.69623 19.8195 9.18588 19.4057C10.6755 18.9919 12.1652 19.654 12.91 20.9781L31.8617 54.0815C32.11 54.5781 32.9376 54.3298 32.9376 53.8333V47.3781C33.9307 47.7091 35.0066 47.8746 36.0824 47.8746C37.1583 47.8746 38.3169 47.7091 39.4755 47.2953Z" fill="#AAE5F2"/>
<path d="M35.9996 44.3986C39.6561 44.3986 42.6203 41.4344 42.6203 37.7779C42.6203 34.1214 39.6561 31.1572 35.9996 31.1572C32.3431 31.1572 29.3789 34.1214 29.3789 37.7779C29.3789 41.4344 32.3431 44.3986 35.9996 44.3986Z" fill="white"/>
<path d="M62.0689 19.7367C65.7254 19.7367 68.6896 16.7726 68.6896 13.1161C68.6896 9.45954 65.7254 6.49536 62.0689 6.49536C58.4124 6.49536 55.4482 9.45954 55.4482 13.1161C55.4482 16.7726 58.4124 19.7367 62.0689 19.7367Z" fill="white"/>
<path d="M9.93124 69.0607C13.5877 69.0607 16.5519 66.0965 16.5519 62.44C16.5519 58.7835 13.5877 55.8193 9.93124 55.8193C6.27473 55.8193 3.31055 58.7835 3.31055 62.44C3.31055 66.0965 6.27473 69.0607 9.93124 69.0607Z" fill="white"/>
</svg>
