<svg width="28" height="28" viewBox="0 0 28 28" fill="none" xmlns="http://www.w3.org/2000/svg">
<path d="M27.1699 0.510559H0.430664V27.2498H27.1699V0.510559Z" fill="white"/>
<path d="M5.94734 10.2222V9.05513H6.64101V5.23993H5.94734V4.36347L6.58476 4.07288H8.28145V9.05513H8.95638V10.2222H5.94734Z" fill="black"/>
<path d="M5.19742 19.4929C5.21297 19.2114 5.28392 18.9358 5.4062 18.6819C5.52848 18.4279 5.69968 18.2006 5.90999 18.0129C6.1203 17.8252 6.36558 17.6809 6.63177 17.5882C6.89797 17.4955 7.17984 17.4563 7.46123 17.4728C8.81576 17.4728 9.56568 18.3071 9.56568 19.4226C9.56568 21.0958 7.24562 21.4661 6.90348 22.5675H8.39862V21.9207H9.63129V23.7346H5.15992V22.6659C5.93327 20.5896 8.08928 20.36 8.08928 19.4226C8.09109 19.3316 8.07356 19.2414 8.03785 19.1577C8.00215 19.0741 7.94909 18.999 7.88217 18.9374C7.81526 18.8758 7.73603 18.8291 7.64973 18.8004C7.56342 18.7718 7.47201 18.7618 7.38155 18.7711C7.26785 18.7759 7.15622 18.8031 7.05311 18.8513C6.94999 18.8994 6.85742 18.9675 6.78074 19.0516C6.70406 19.1357 6.64478 19.2341 6.60632 19.3412C6.56785 19.4483 6.55097 19.562 6.55664 19.6757L5.19742 19.4929Z" fill="black"/>
<path d="M18.4941 22.3145L19.9002 21.8833C19.9705 22.2958 20.1815 22.6051 20.6361 22.6051C20.7317 22.6117 20.8276 22.5974 20.9172 22.5631C21.0067 22.5289 21.0878 22.4756 21.1546 22.4069C21.2215 22.3383 21.2727 22.2559 21.3045 22.1654C21.3364 22.075 21.3482 21.9788 21.3391 21.8833C21.3391 21.3397 20.9501 21.0678 20.3221 21.0678H20.1018V20.1164H20.3314C20.9782 20.1164 21.2688 19.8258 21.2688 19.3524C21.2743 19.2666 21.2615 19.1807 21.2312 19.1003C21.2009 19.0199 21.1537 18.9469 21.093 18.8861C21.0322 18.8253 20.9592 18.7782 20.8788 18.7479C20.7984 18.7176 20.7125 18.7048 20.6267 18.7103C20.2564 18.7103 20.0127 18.9727 19.9424 19.4367L18.616 19.0571C18.7156 18.5893 18.9812 18.1734 19.3638 17.8865C19.7465 17.5995 20.2201 17.4609 20.697 17.4963C22.0469 17.4963 22.7405 18.2181 22.7405 19.3055C22.7549 19.5929 22.6693 19.8764 22.4985 20.1079C22.3276 20.3394 22.082 20.5046 21.8031 20.5757C22.1207 20.64 22.4036 20.8188 22.598 21.078C22.7924 21.3373 22.8849 21.6589 22.8577 21.9818C22.8577 23.0879 22.075 23.8847 20.6127 23.8847C19.4269 23.8659 18.7097 23.2707 18.4941 22.3145Z" fill="black"/>
<path d="M27.5449 0.566711H13.6809V13.9996H27.5449V0.566711Z" fill="#FB9B00"/>
<path d="M0 0V28H28V0H0ZM26.6783 13.3438H14.6562V1.31235H26.6783V13.3438ZM13.3438 1.31235V13.3438H1.31235V1.31235H13.3438ZM1.31235 14.6562H13.3438V26.6783H1.31235V14.6562ZM14.6562 26.6783V14.6562H26.6783V26.6783H14.6562Z" fill="black"/>
</svg>
