<svg width="22" height="22" viewBox="0 0 22 22" fill="none" xmlns="http://www.w3.org/2000/svg">
<path d="M2.55334 1.20384V4.7725L7.26554 1.20384H2.55334Z" fill="white"/>
<path d="M7.26554 1.20384L2.55334 4.7725V15.063L8.21729 1.20384H7.26554Z" fill="#FF3833"/>
<path d="M20.6262 19.6975V9.29115L11.7242 19.6975H20.6262Z" fill="#FF3833"/>
<path d="M20.6262 8.85535V1.20384H16.9656L13.5746 11.6715L20.6262 8.85535Z" fill="#E87E7E"/>
<path d="M2.55334 16.827V19.6976H10.9761L13.5751 11.6715L2.55334 16.827Z" fill="#E87E7E"/>
<path d="M13.575 11.6717L10.976 19.6978H11.7247L20.6266 9.29143V8.85556L13.575 11.6717Z" fill="white"/>
<path d="M16.9661 1.20384H8.21729L2.55334 15.063V16.8269L13.5751 11.6715L16.9661 1.20384Z" fill="#E20736"/>
<path d="M21.7478 8.7363C21.6667 8.65635 21.567 8.59879 21.4582 8.56901C21.3493 8.53923 21.2349 8.53821 21.1255 8.56604V0.693198H17.6446C17.6593 0.567777 17.6281 0.44123 17.557 0.337995C17.4858 0.234761 17.3798 0.162163 17.2594 0.134223C17.139 0.106283 17.0128 0.124982 16.9051 0.18671C16.7974 0.248437 16.7158 0.348814 16.6762 0.468454L16.603 0.693198H8.91244C8.91268 0.592301 8.89101 0.492609 8.849 0.401328C8.80699 0.310048 8.74568 0.22946 8.66951 0.16539C8.55274 0.0623092 8.40462 0.00391658 8.25045 0.000190064C8.09628 -0.00353645 7.94563 0.0476345 7.82424 0.144959L7.1021 0.693198H2.0538V4.51725L1.0255 5.29704C0.96001 5.33022 0.902433 5.37771 0.856843 5.43616C0.811252 5.4946 0.778759 5.56258 0.761659 5.63528C0.744559 5.70799 0.74327 5.78365 0.757882 5.85692C0.772494 5.93019 0.80265 5.99929 0.846221 6.05933C0.889792 6.11936 0.945716 6.16888 1.01004 6.20437C1.07436 6.23987 1.14552 6.26048 1.21848 6.26475C1.29145 6.26902 1.36444 6.25684 1.43229 6.22907C1.50015 6.20131 1.56123 6.15864 1.6112 6.10408L2.04715 5.76356V14.9576L1.38158 16.5819C1.32501 16.6916 1.29879 16.815 1.30575 16.9389C1.31272 17.0627 1.3526 17.1823 1.42111 17.2846C1.48961 17.3869 1.58412 17.4682 1.69445 17.5196C1.80478 17.571 1.92673 17.5906 2.04715 17.5762V20.2085H10.2835L10.2635 20.2698V20.3549C10.2607 20.5152 10.3132 20.6714 10.4118 20.7959C10.5104 20.9205 10.6488 21.0055 10.8026 21.0359C10.9346 21.0664 11.0724 21.055 11.1979 21.0033C11.3233 20.9516 11.4304 20.862 11.5048 20.7465L11.9907 20.2255H21.1255V10.3844L21.861 9.59442L21.9109 9.50929C21.9657 9.3791 21.9795 9.23466 21.9502 9.0961C21.921 8.95753 21.8503 8.83176 21.7478 8.7363ZM20.1272 8.96445L14.1704 11.4503L17.3252 1.71476H20.1272V8.96445ZM19.9874 10.1256L11.7211 19.0166L13.7577 12.7272L19.9874 10.1256ZM12.9557 11.9576L3.05215 16.0916V15.1653L8.5497 1.71476H16.2736L12.9557 11.9576ZM3.05215 1.71476H5.75434L3.05215 3.75789V1.71476ZM3.05215 5.03144L7.42823 1.71476H7.46816L3.05215 12.5161V5.03144ZM3.05215 19.1869V17.1948L12.5431 13.2346L10.613 19.1869H3.05215ZM20.1272 19.1869H12.9424L20.1272 11.4571V19.1869Z" fill="black"/>
</svg>
