<svg width="510" height="186" viewBox="0 0 510 186" fill="none" xmlns="http://www.w3.org/2000/svg">
<rect x="316" y="129.486" width="135" height="54" rx="10.125" fill="#95BDF9"/>
<rect x="326.968" y="153.954" width="9.28125" height="9.28125" fill="black" stroke="black" stroke-width="1.26563"/>
<rect x="326.968" y="163.236" width="9.28125" height="9.28125" fill="white" stroke="black" stroke-width="1.26563"/>
<rect x="336.25" y="153.954" width="9.28125" height="9.28125" fill="white" stroke="black" stroke-width="1.26563"/>
<rect x="336.25" y="163.236" width="9.28125" height="9.28125" fill="white" stroke="black" stroke-width="1.26563"/>
<rect x="350.594" y="163.236" width="9.28125" height="9.28125" fill="#D8E8FF" stroke="black" stroke-width="1.26563"/>
<rect x="359.875" y="153.954" width="9.28125" height="9.28125" fill="#D8E8FF" stroke="black" stroke-width="1.26563"/>
<rect x="359.875" y="163.236" width="9.28125" height="9.28125" fill="#D8E8FF" stroke="black" stroke-width="1.26563"/>
<rect x="350.594" y="153.954" width="9.28125" height="9.28125" fill="#538AE9" stroke="black" stroke-width="1.26563"/>
<rect x="397.844" y="163.236" width="9.28125" height="9.28125" fill="#D8E8FF" stroke="black" stroke-width="1.26563"/>
<rect x="407.125" y="153.954" width="9.28125" height="9.28125" fill="#538AE9" stroke="black" stroke-width="1.26563"/>
<rect x="407.125" y="163.236" width="9.28125" height="9.28125" fill="#538AE9" stroke="black" stroke-width="1.26563"/>
<rect x="397.844" y="153.954" width="9.28125" height="9.28125" fill="#538AE9" stroke="black" stroke-width="1.26563"/>
<path d="M339.936 140.017V145.923H338.62V141.409L337.202 145.923H336.308L334.891 141.325V145.923H333.802V140.017H335.658L336.899 143.89L338.105 140.017H339.936Z" fill="black"/>
<path d="M362.119 140.017V141.114H360.524V145.923H359.157V141.114H357.563V140.017H362.119Z" fill="black"/>
<path d="M386.768 140.017H387.873L386.338 145.923H385.131L384.135 142.034L383.148 145.923H381.891L380.381 140.017H381.697L382.659 144.109L383.68 140.017H384.793L385.814 144.067L386.768 140.017Z" fill="black"/>
<path d="M409.369 140.017V141.114H407.774V145.923H406.407V141.114H404.813V140.017H409.369Z" fill="black"/>
<path d="M432.98 140.017V141.114H430.322V142.455H432.086V143.552H430.322V145.923H428.956V140.017H432.98Z" fill="black"/>
<line x1="326.968" y1="149.103" x2="345.531" y2="149.103" stroke="black" stroke-width="1.26563"/>
<line x1="350.594" y1="149.103" x2="369.156" y2="149.103" stroke="black" stroke-width="1.26563"/>
<line x1="374.219" y1="149.103" x2="392.781" y2="149.103" stroke="black" stroke-width="1.26563"/>
<line x1="397.844" y1="149.103" x2="416.407" y2="149.103" stroke="black" stroke-width="1.26563"/>
<line x1="421.469" y1="149.103" x2="440.031" y2="149.103" stroke="black" stroke-width="1.26563"/>
<rect x="374.219" y="153.954" width="18.5625" height="18.5625" fill="#538AE9" stroke="black" stroke-width="1.26563"/>
<path d="M383.662 157.432L385.29 160.926C385.316 160.983 385.372 161.022 385.434 161.028L389.246 161.402C389.399 161.417 389.461 161.602 389.348 161.704L386.386 164.375C386.339 164.418 386.319 164.481 386.333 164.542L387.195 168.081C387.231 168.231 387.066 168.351 386.931 168.27L383.593 166.309C383.537 166.277 383.466 166.277 383.408 166.309L380.068 168.272C379.933 168.353 379.766 168.233 379.804 168.083L380.667 164.544C380.682 164.483 380.662 164.418 380.613 164.377L377.651 161.701C377.538 161.599 377.602 161.415 377.754 161.4L381.565 161.026C381.627 161.02 381.683 160.981 381.71 160.924L383.337 157.43C383.402 157.296 383.6 157.296 383.662 157.432Z" fill="white"/>
<rect x="421.469" y="153.954" width="18.5625" height="18.5625" fill="#538AE9" stroke="black" stroke-width="1.26563"/>
<path d="M430.912 157.432L432.54 160.926C432.567 160.983 432.622 161.022 432.684 161.028L436.496 161.402C436.649 161.417 436.712 161.602 436.598 161.704L433.636 164.375C433.589 164.418 433.569 164.481 433.583 164.542L434.446 168.081C434.481 168.231 434.317 168.351 434.181 168.27L430.843 166.309C430.788 166.277 430.716 166.277 430.659 166.309L427.319 168.272C427.183 168.353 427.016 168.233 427.054 168.083L427.917 164.544C427.932 164.483 427.912 164.418 427.863 164.377L424.901 161.701C424.788 161.599 424.852 161.415 425.004 161.4L428.815 161.026C428.877 161.02 428.933 160.981 428.96 160.924L430.587 157.43C430.652 157.296 430.85 157.296 430.912 157.432Z" fill="white"/>
<rect x="345" y="64.4857" width="54" height="54" rx="10.0286" fill="#6CAA65"/>
<path d="M367.117 97.6065L367.396 101.384C367.403 101.457 367.394 101.53 367.37 101.599C367.346 101.667 367.307 101.73 367.256 101.782L365.865 103.313C365.796 103.39 365.75 103.485 365.734 103.587C365.718 103.69 365.732 103.794 365.774 103.889C365.816 103.983 365.885 104.064 365.971 104.12C366.058 104.177 366.159 104.207 366.262 104.208H370.776C370.846 104.208 370.916 104.194 370.981 104.167C371.047 104.14 371.106 104.101 371.156 104.051C371.206 104.001 371.245 103.942 371.272 103.877C371.299 103.811 371.313 103.741 371.313 103.671V97.7059C371.311 97.5673 371.257 97.4346 371.161 97.3347C371.065 97.2349 370.934 97.1757 370.796 97.1691L367.654 97.0498C367.58 97.0433 367.506 97.0534 367.436 97.0793C367.367 97.1053 367.304 97.1465 367.253 97.1999C367.201 97.2533 367.162 97.3175 367.139 97.3878C367.115 97.4582 367.108 97.5329 367.117 97.6065V97.6065Z" fill="#6CAA65" stroke="black" stroke-width="0.886208" stroke-linecap="round" stroke-linejoin="round"/>
<path d="M371.69 105.381H364.373V106.633H371.69V105.381Z" fill="#8E8E8E" stroke="black" stroke-width="0.836974" stroke-linecap="round" stroke-linejoin="round"/>
<path d="M364.373 104.824C364.374 104.669 364.409 104.516 364.474 104.376C364.539 104.235 364.633 104.11 364.751 104.009L366.381 102.557C366.446 102.502 366.496 102.431 366.527 102.351C366.559 102.271 366.57 102.185 366.56 102.1L366.461 100.887H371.69V105.401H364.373V104.824Z" fill="white" stroke="black" stroke-width="0.836974" stroke-linecap="round" stroke-linejoin="round"/>
<path d="M367.893 102.597H369.782" stroke="black" stroke-width="0.836974" stroke-linecap="round" stroke-linejoin="round"/>
<path d="M367.037 103.79H369.781" stroke="black" stroke-width="0.836974" stroke-linecap="round" stroke-linejoin="round"/>
<path d="M373.321 103.671V97.706C373.322 97.5675 373.376 97.4347 373.472 97.3349C373.568 97.2351 373.699 97.1758 373.838 97.1692L376.979 97.0499C377.053 97.0446 377.128 97.0553 377.198 97.0814C377.268 97.1075 377.332 97.1484 377.384 97.2012C377.437 97.254 377.478 97.3175 377.504 97.3874C377.53 97.4574 377.541 97.5322 377.536 97.6066L377.257 101.126C377.25 101.198 377.258 101.272 377.283 101.34C377.307 101.409 377.346 101.472 377.397 101.524" fill="#6CAA65"/>
<path d="M373.321 103.671V97.706C373.322 97.5675 373.376 97.4347 373.472 97.3349C373.568 97.2351 373.699 97.1758 373.838 97.1692L376.979 97.0499C377.053 97.0446 377.128 97.0553 377.198 97.0814C377.268 97.1075 377.332 97.1484 377.384 97.2012C377.437 97.254 377.478 97.3175 377.504 97.3874C377.53 97.4574 377.541 97.5322 377.536 97.6066L377.257 101.126C377.25 101.198 377.258 101.272 377.283 101.34C377.307 101.409 377.346 101.472 377.397 101.524" stroke="black" stroke-width="0.886208" stroke-linecap="round" stroke-linejoin="round"/>
<path d="M380.261 105.421H372.944V106.673H380.261V105.421Z" fill="#8E8E8E" stroke="black" stroke-width="0.836974" stroke-linecap="round" stroke-linejoin="round"/>
<path d="M380.261 104.864C380.259 104.709 380.225 104.556 380.16 104.415C380.095 104.275 380 104.15 379.883 104.048L378.253 102.597C378.188 102.541 378.138 102.47 378.106 102.391C378.075 102.311 378.064 102.225 378.074 102.14L378.173 100.927H372.944V105.44H380.261V104.864Z" fill="white" stroke="black" stroke-width="0.836974" stroke-linecap="round" stroke-linejoin="round"/>
<path d="M376.741 102.637H374.852" stroke="black" stroke-width="0.836974" stroke-linecap="round" stroke-linejoin="round"/>
<path d="M377.596 103.81H374.852" stroke="black" stroke-width="0.836974" stroke-linecap="round" stroke-linejoin="round"/>
<path d="M372.525 85.6768C375.248 85.6768 377.456 83.4692 377.456 80.7459C377.456 78.0226 375.248 75.8149 372.525 75.8149C369.802 75.8149 367.594 78.0226 367.594 80.7459C367.594 83.4692 369.802 85.6768 372.525 85.6768Z" fill="white" stroke="black" stroke-width="0.886208" stroke-linecap="round" stroke-linejoin="round"/>
<path d="M369.602 76.7295L366.858 73.767" stroke="black" stroke-width="0.886208" stroke-linecap="round" stroke-linejoin="round"/>
<path d="M375.726 76.9482L378.668 74.1844" stroke="black" stroke-width="0.886208" stroke-linecap="round" stroke-linejoin="round"/>
<path d="M378.213 99.6942L365.527 99.2567C364.295 99.2096 363.131 98.6774 362.29 97.7762C361.448 96.8749 360.997 95.6776 361.034 94.4451L361.412 83.5095C361.455 82.276 361.986 81.1102 362.888 80.2678C363.79 79.4254 364.99 78.9752 366.223 79.016L378.908 79.4534C380.141 79.5006 381.304 80.0327 382.146 80.934C382.988 81.8352 383.439 83.0325 383.402 84.2651L383.024 95.2006C382.98 96.4339 382.449 97.5994 381.547 98.4417C380.645 99.284 379.446 99.7344 378.213 99.6942V99.6942Z" fill="white" stroke="black" stroke-width="0.886208" stroke-linecap="round" stroke-linejoin="round"/>
<path d="M377.754 94.3658C378.655 94.3658 379.385 93.6358 379.385 92.7354C379.385 91.8349 378.655 91.105 377.754 91.105C376.854 91.105 376.124 91.8349 376.124 92.7354C376.124 93.6358 376.854 94.3658 377.754 94.3658Z" fill="black" stroke="black" stroke-width="0.886208" stroke-linecap="round" stroke-linejoin="round"/>
<path d="M372.127 94.167C373.028 94.167 373.758 93.4371 373.758 92.5366C373.758 91.6362 373.028 90.9062 372.127 90.9062C371.227 90.9062 370.497 91.6362 370.497 92.5366C370.497 93.4371 371.227 94.167 372.127 94.167Z" fill="black" stroke="black" stroke-width="0.886208" stroke-linecap="round" stroke-linejoin="round"/>
<path d="M366.481 93.9681C367.382 93.9681 368.111 93.2381 368.111 92.3377C368.111 91.4372 367.382 90.7073 366.481 90.7073C365.581 90.7073 364.851 91.4372 364.851 92.3377C364.851 93.2381 365.581 93.9681 366.481 93.9681Z" fill="black" stroke="black" stroke-width="0.886208" stroke-linecap="round" stroke-linejoin="round"/>
<path d="M369.543 88.3013L365.05 88.1423C364.93 88.1374 364.812 88.1089 364.702 88.0582C364.593 88.0075 364.495 87.9358 364.414 87.8471C364.333 87.7584 364.27 87.6545 364.229 87.5414C364.188 87.4282 364.169 87.3081 364.175 87.1879L364.294 83.609C364.299 83.4888 364.328 83.3707 364.378 83.2615C364.429 83.1524 364.501 83.0543 364.59 82.973C364.678 82.8917 364.782 82.8288 364.895 82.7878C365.008 82.7468 365.129 82.7285 365.249 82.7341L369.742 82.8932L369.543 88.3013Z" fill="#77A76A" stroke="black" stroke-width="0.886208" stroke-linecap="round" stroke-linejoin="round"/>
<path d="M369.757 82.9009L369.568 88.3058L374.993 88.4952L375.182 83.0904L369.757 82.9009Z" fill="white" stroke="black" stroke-width="0.886208" stroke-linecap="round" stroke-linejoin="round"/>
<path d="M379.484 88.6595L374.971 88.5004L375.15 83.0923L379.644 83.2513C379.764 83.2562 379.882 83.2848 379.991 83.3354C380.1 83.3861 380.198 83.4578 380.28 83.5465C380.361 83.6352 380.424 83.7392 380.465 83.8523C380.506 83.9654 380.524 84.0855 380.518 84.2057L380.399 87.7846C380.397 87.9023 380.372 88.0184 380.324 88.1262C380.277 88.234 380.209 88.3314 380.124 88.4128C380.039 88.4941 379.939 88.5578 379.829 88.6001C379.719 88.6425 379.602 88.6627 379.484 88.6595Z" fill="#DEBC48" stroke="black" stroke-width="0.886208" stroke-linecap="round" stroke-linejoin="round"/>
<rect x="345" y="53.4857" width="53.4857" height="117" rx="10.0286" transform="rotate(-90 345 53.4857)" fill="#E05C56"/>
<rect x="360.879" y="34.265" width="18.3857" height="85.2429" transform="rotate(-90 360.879 34.265)" fill="white" stroke="black" stroke-width="1.25357"/>
<path d="M446.121 25.0722L428.571 34.265L378.429 15.8793L403.5 34.265L360.043 25.0722L378.429 34.265L403.5 15.8793" stroke="black" stroke-width="0.835714" stroke-dasharray="1.67 1.67"/>
<circle cx="360.043" cy="25.0713" r="2.50714" transform="rotate(-90 360.043 25.0713)" fill="white" stroke="black" stroke-width="1.25357"/>
<circle cx="446.121" cy="25.0713" r="2.50714" transform="rotate(-90 446.121 25.0713)" fill="white" stroke="black" stroke-width="1.25357"/>
<circle cx="378.429" cy="34.2647" r="2.50714" transform="rotate(-90 378.429 34.2647)" fill="white" stroke="black" stroke-width="1.25357"/>
<circle cx="403.5" cy="34.2647" r="2.50714" transform="rotate(-90 403.5 34.2647)" fill="white" stroke="black" stroke-width="1.25357"/>
<circle cx="428.571" cy="34.2647" r="2.50714" transform="rotate(-90 428.571 34.2647)" fill="white" stroke="black" stroke-width="1.25357"/>
<circle cx="378.429" cy="15.879" r="2.50714" transform="rotate(-90 378.429 15.879)" fill="white" stroke="black" stroke-width="1.25357"/>
<circle cx="403.5" cy="15.879" r="2.50714" transform="rotate(-90 403.5 15.879)" fill="white" stroke="black" stroke-width="1.25357"/>
<circle cx="428.571" cy="15.879" r="2.50714" transform="rotate(-90 428.571 15.879)" fill="white" stroke="black" stroke-width="1.25357"/>
<rect x="408" y="64.4857" width="101.25" height="54" rx="9.9375" fill="#B6E254"/>
<rect x="428.251" y="81.3608" width="20.25" height="20.25" fill="white"/>
<path d="M447.622 91.4858L438.376 100.732L429.13 91.4858L438.376 82.2397L447.622 91.4858Z" fill="#BEE65F" stroke="black" stroke-width="1.24219"/>
<path d="M440.577 91.4854L438.374 93.6885L436.171 91.4854L438.374 89.2822L440.577 91.4854Z" fill="black" stroke="black" stroke-width="1.24219"/>
<rect x="428.251" y="81.3608" width="20.25" height="20.25" stroke="black" stroke-width="1.24219"/>
<rect x="448.5" y="81.3607" width="20.25" height="20.25" fill="black" stroke="black" stroke-width="1.24219"/>
<path d="M465.785 94.4509L468.75 91.4857L465.785 88.5205V84.3259H461.59L458.625 81.3607L455.66 84.3259H451.465V88.5205L448.5 91.4857L451.465 94.4509V98.6455H455.66L458.625 101.611L461.59 98.6455H465.785V94.4509Z" fill="white"/>
<path d="M461.566 88.549H455.689V94.4263H461.566V88.549Z" fill="#BEE65F"/>
<rect x="448.5" y="81.3607" width="20.25" height="20.25" stroke="black" stroke-width="1.24219"/>
<rect x="468.75" y="81.3607" width="20.25" height="20.25" fill="#BEE75C"/>
<path d="M488.121 91.4857L478.875 100.732L469.629 91.4857L478.875 82.2396L488.121 91.4857Z" fill="white" stroke="white" stroke-width="1.24219"/>
<path d="M478.843 95.7045C479.365 95.7045 482.25 95.7045 482.25 92.8424C482.25 89.8422 481.987 87.2607 481.987 87.2607C481.987 87.2607 481.071 87.4722 480.152 88.3097C479.56 87.0535 478.843 86.4232 478.843 86.4232C478.843 86.4232 478.122 87.1225 477.534 88.3097C476.618 87.4722 475.699 87.2607 475.699 87.2607C475.699 87.2607 475.5 89.8422 475.5 92.8424C475.5 95.7045 478.385 95.7045 478.843 95.7045Z" fill="black"/>
<rect x="468.75" y="81.3607" width="20.25" height="20.25" stroke="black" stroke-width="1.24219"/>
<rect width="119" height="119" rx="10.2" fill="#F7DA21"/>
<path d="M2.5498 36.5499C2.83913 45.069 8.2785 63.2839 27.7214 67.9903C52.0249 73.8733 47.7815 41.4685 31.0969 46.7729C14.4123 52.0772 25.6961 78.7919 42.9593 79.8527C57.1364 80.7239 55.8827 69.244 74.0139 69.244" stroke="black" stroke-width="1.25211" stroke-dasharray="2.31 2.31"/>
<path d="M83.2985 53.5648H90.3266V49.37L88.3526 50.65L86.8127 49.37L85.2724 50.65L83.2985 49.37V53.5648Z" fill="#5BA0D4"/>
<path fill-rule="evenodd" clip-rule="evenodd" d="M82.8884 48.6156L85.2423 50.1419L86.8125 48.8369L88.3825 50.1419L90.7364 48.6156V53.9746H82.8884V48.6156ZM89.9166 50.1242L88.3224 51.1579L86.8125 49.9029L85.3023 51.1579L83.7082 50.1242V53.1548H89.9166V50.1242Z" fill="black"/>
<path d="M92.6823 49.4525L86.7575 51.7163L80.8328 49.4525L86.7575 47.1886L92.6823 49.4525Z" fill="#5BA0D4"/>
<path fill-rule="evenodd" clip-rule="evenodd" d="M86.7584 46.75L93.8316 49.4528L86.7584 52.1552L79.6853 49.4528L86.7584 46.75ZM81.982 49.4527L86.7584 51.2777L91.5348 49.4527L86.7584 47.6276L81.982 49.4527Z" fill="black"/>
<path fill-rule="evenodd" clip-rule="evenodd" d="M87.1264 49.7064C87.1266 49.7069 87.1269 49.7073 86.7576 49.8852C86.3883 50.063 86.3885 50.0635 86.3887 50.0639L86.3891 50.0647L86.3899 50.0664L86.3914 50.0693L86.3938 50.074C86.3952 50.0766 86.3961 50.0781 86.3965 50.0788C86.3973 50.0802 86.3962 50.0781 86.3929 50.0736C86.3863 50.0646 86.3715 50.0465 86.3466 50.0258C86.3008 49.9877 86.2048 49.9272 86.0232 49.913C85.641 49.8832 84.8295 50.0579 83.3484 51.2256C81.8025 52.4445 80.6529 52.8445 79.8494 52.9105C79.4472 52.9436 79.1389 52.8921 78.9207 52.8237C78.8122 52.7897 78.7276 52.7519 78.666 52.7197C78.6353 52.7036 78.6103 52.6889 78.5911 52.6768C78.5815 52.6707 78.5734 52.6653 78.5666 52.6606C78.5632 52.6583 78.5602 52.6562 78.5575 52.6543L78.5538 52.6516L78.5521 52.6503L78.5513 52.6497C78.5509 52.6495 78.5505 52.6492 78.7949 52.3201C79.0392 51.991 79.0388 51.9907 79.0385 51.9904L79.0378 51.9899L79.0364 51.989L79.0341 51.9873L79.0307 51.9849C79.029 51.9837 79.0285 51.9834 79.029 51.9838C79.0302 51.9845 79.0359 51.988 79.0463 51.9935C79.067 52.0043 79.1066 52.0228 79.166 52.0415C79.2837 52.0784 79.4859 52.1179 79.7823 52.0935C80.3761 52.0447 81.3764 51.7366 82.8409 50.5819C84.3702 49.3761 85.3902 49.0414 86.0868 49.0957C86.4446 49.1236 86.6999 49.2535 86.8706 49.3953C86.9538 49.4645 87.0136 49.5337 87.0544 49.5895C87.0748 49.6174 87.0907 49.6422 87.1025 49.6622C87.1084 49.6722 87.1134 49.6811 87.1174 49.6887C87.1194 49.6925 87.1212 49.6959 87.1228 49.6991L87.125 49.7035L87.1259 49.7055L87.1264 49.7064Z" fill="black"/>
<path d="M86.3841 62.2612V59.3168C86.3841 58.7344 86.2114 58.1651 85.8879 57.6809C85.5644 57.1967 85.1045 56.8193 84.5665 56.5964C84.0285 56.3736 83.4364 56.3153 82.8653 56.4289C82.2941 56.5425 81.7694 56.8229 81.3576 57.2347C80.9459 57.6465 80.6654 58.1712 80.5518 58.7423C80.4382 59.3135 80.4965 59.9055 80.7194 60.4436C80.9422 60.9816 81.3196 61.4414 81.8038 61.765C82.2881 62.0885 82.8573 62.2612 83.4397 62.2612H86.3841Z" fill="white"/>
<path d="M92.3796 61.4199C92.7246 61.0785 92.9799 60.6573 93.1227 60.1935C93.2655 59.7298 93.2915 59.2379 93.1984 58.7616C93.1053 58.2854 92.8959 57.8396 92.5888 57.4638C92.2818 57.088 91.8867 56.7939 91.4385 56.6077C90.9904 56.4215 90.5032 56.349 90.0203 56.3965C89.5374 56.444 89.0737 56.6102 88.6705 56.8802C88.2672 57.1501 87.937 57.5156 87.7091 57.944C87.4812 58.3725 87.3628 58.8506 87.3643 59.3358V62.2803H90.3087C90.6935 62.2802 91.0746 62.2041 91.4299 62.0564C91.7853 61.9088 92.108 61.6925 92.3796 61.4199V61.4199Z" fill="white"/>
<path d="M78.4503 69.0134C78.4503 71.7648 80.1581 73.9405 82.6085 74.5752V63.6022C80.2039 64.4364 78.4503 66.6153 78.4503 69.0134Z" fill="white"/>
<path d="M89.5726 74.7815C90.4411 74.7083 91.2858 74.4598 92.0556 74.051C92.8254 73.6422 93.5044 73.0816 94.0514 72.403C93.4519 72.5605 92.8216 72.5585 92.223 72.3972C91.6245 72.236 91.0785 71.9211 90.6391 71.4837L91.3262 70.7901C91.8067 71.2687 92.4555 71.5401 93.1336 71.5462C93.8118 71.5523 94.4653 71.2927 94.9544 70.8228C95.1717 70.2445 95.2826 69.6315 95.2816 69.0136C95.3015 68.2582 95.1684 67.5065 94.8904 66.8037C94.6123 66.101 94.195 65.4618 93.6635 64.9245C93.1321 64.3872 92.4974 63.963 91.7977 63.6773C91.0981 63.3916 90.3479 63.2504 89.5922 63.2622H87.3643V74.7815H89.5726ZM90.999 66.7497C91.203 66.7497 91.4024 66.8102 91.5719 66.9236C91.7414 67.037 91.8735 67.1981 91.9514 67.3866C92.0293 67.5751 92.0496 67.7825 92.0095 67.9825C91.9695 68.1825 91.871 68.3661 91.7266 68.5101C91.5821 68.6541 91.3982 68.752 91.1981 68.7914C90.9979 68.8308 90.7906 68.8099 90.6024 68.7314C90.4141 68.6529 90.2534 68.5203 90.1405 68.3504C90.0277 68.1805 89.9678 67.9809 89.9685 67.777C89.9685 67.6418 89.9951 67.5079 90.047 67.3831C90.0988 67.2582 90.1748 67.1448 90.2705 67.0494C90.3662 66.954 90.4799 66.8784 90.6049 66.8269C90.7299 66.7755 90.8638 66.7493 90.999 66.7497V66.7497Z" fill="white"/>
<path d="M84.1592 63.2619C83.9682 63.278 83.7782 63.3042 83.59 63.3405V74.7551C83.7634 74.7715 83.9433 74.7813 84.1232 74.7813H86.3839V63.2587H84.1592V63.2619Z" fill="white"/>
<path d="M90.9994 68.8045C91.2033 68.8045 91.4025 68.7441 91.572 68.6308C91.7415 68.5176 91.8735 68.3567 91.9515 68.1683C92.0295 67.98 92.0499 67.7728 92.0102 67.5729C91.9704 67.373 91.8723 67.1894 91.7281 67.0453C91.584 66.9011 91.4004 66.803 91.2005 66.7632C91.0006 66.7234 90.7934 66.7439 90.6051 66.8219C90.4167 66.8999 90.2558 67.0319 90.1426 67.2014C90.0293 67.3709 89.9689 67.5701 89.9689 67.774C89.9689 68.0473 90.0774 68.3094 90.2707 68.5027C90.464 68.6959 90.7261 68.8045 90.9994 68.8045V68.8045Z" fill="black"/>
<path d="M92.1754 62.7845C92.5057 62.6048 92.8086 62.379 93.0751 62.1138C93.4715 61.716 93.778 61.2378 93.9738 60.7115C94.1696 60.1852 94.2502 59.623 94.2102 59.0628C94.1702 58.5027 94.0105 57.9576 93.7418 57.4645C93.4732 56.9713 93.1019 56.5416 92.653 56.2042C92.2041 55.8668 91.688 55.6296 91.1396 55.5087C90.5912 55.3878 90.0232 55.3859 89.4741 55.5032C88.9249 55.6206 88.4073 55.8543 87.9561 56.1888C87.505 56.5232 87.1309 56.9505 86.859 57.4419C86.5626 56.8947 86.1402 56.4257 85.6268 56.0738C85.1135 55.7219 84.5238 55.4971 83.9064 55.418C83.2891 55.3388 82.6617 55.4076 82.0762 55.6186C81.4906 55.8296 80.9636 56.1768 80.5387 56.6316C80.1137 57.0863 79.803 57.6356 79.6321 58.2341C79.4612 58.8326 79.4351 59.4631 79.5558 60.0737C79.6766 60.6843 79.9408 61.2574 80.3266 61.7458C80.7125 62.2342 81.2089 62.6238 81.775 62.8826C79.4194 63.8968 77.6985 66.0888 77.4957 68.5294H75.6505V69.5109H77.4924C77.584 71.2062 78.3245 72.8012 79.5604 73.9652C80.7963 75.1292 82.4328 75.773 84.1305 75.7629H89.6334C93.291 75.475 96.2846 72.4488 96.2846 69.0136C96.3006 67.6835 95.9178 66.3792 95.1853 65.2688C94.4529 64.1585 93.4045 63.2931 92.1754 62.7845V62.7845ZM82.6092 74.5851C80.1588 73.9308 78.451 71.765 78.451 69.0234C78.451 66.6253 80.2144 64.4432 82.6092 63.6122V74.5851ZM86.3847 74.7814H84.1305C83.9506 74.7814 83.7706 74.7814 83.5973 74.7553V63.3406C83.7855 63.3044 83.9755 63.2782 84.1665 63.2621H86.3912L86.3847 74.7814ZM86.3847 62.2741H83.4402C82.662 62.2725 81.9157 61.9646 81.3627 61.4169C81.0178 61.0756 80.7625 60.6543 80.6197 60.1906C80.4769 59.7268 80.4508 59.2349 80.544 58.7587C80.6371 58.2825 80.8465 57.8366 81.1536 57.4608C81.4606 57.0851 81.8557 56.791 82.3039 56.6048C82.752 56.4186 83.2392 56.346 83.7221 56.3936C84.205 56.4411 84.6687 56.6072 85.0719 56.8772C85.4751 57.1472 85.8054 57.5127 86.0333 57.9411C86.2612 58.3695 86.3796 58.8476 86.3781 59.3329L86.3847 62.2741ZM87.3661 59.3296C87.3661 58.7473 87.5388 58.178 87.8624 57.6938C88.1859 57.2096 88.6458 56.8322 89.1838 56.6093C89.7218 56.3865 90.3139 56.3281 90.885 56.4418C91.4562 56.5554 91.9808 56.8358 92.3926 57.2476C92.8044 57.6594 93.0849 58.184 93.1985 58.7552C93.3121 59.3264 93.2538 59.9184 93.0309 60.4564C92.808 60.9945 92.4307 61.4543 91.9464 61.7779C91.4622 62.1014 90.8929 62.2741 90.3106 62.2741H87.3661V59.3296ZM91.3281 70.7901L90.641 71.4837C91.0803 71.921 91.6263 72.2359 92.2249 72.3972C92.8234 72.5584 93.4538 72.5604 94.0533 72.403C93.5054 73.0798 92.826 73.6385 92.0563 74.0456C91.2865 74.4527 90.4423 74.6997 89.5745 74.7716H87.3661V63.2588H89.5941C90.3517 63.2444 91.1043 63.3837 91.8065 63.6684C92.5087 63.9531 93.1458 64.3772 93.6795 64.9151C94.2131 65.453 94.6321 66.0936 94.9112 66.798C95.1902 67.5025 95.3236 68.2562 95.3031 69.0136C95.3041 69.6315 95.1932 70.2444 94.9759 70.8228C94.486 71.2986 93.8282 71.562 93.1453 71.5558C92.4624 71.5497 91.8094 71.2746 91.3281 70.7901V70.7901Z" fill="black"/>
<rect x="95" y="132" width="53" height="53" rx="9.9375" fill="#B7A6FF"/>
<rect x="104.109" y="152.703" width="11.5938" height="11.5938" stroke="black" stroke-width="1.24219"/>
<rect x="104.109" y="141.109" width="11.5938" height="11.5938" stroke="black" stroke-width="1.24219"/>
<rect x="127.297" y="164.297" width="11.5938" height="11.5938" fill="white" stroke="black" stroke-width="1.24219"/>
<rect x="104.109" y="164.297" width="11.5938" height="11.5938" stroke="black" stroke-width="1.24219"/>
<rect x="115.703" y="164.297" width="11.5938" height="11.5938" fill="#FADB1F" stroke="black" stroke-width="1.24219"/>
<rect x="127.297" y="152.703" width="11.5938" height="11.5938" stroke="black" stroke-width="1.24219"/>
<rect x="127.297" y="141.109" width="11.5938" height="11.5938" stroke="black" stroke-width="1.24219"/>
<rect x="115.703" y="152.703" width="11.5938" height="11.5938" stroke="black" stroke-width="1.24219"/>
<rect x="115.703" y="141.109" width="11.5938" height="11.5938" stroke="black" stroke-width="1.24219"/>
<rect x="33" y="132" width="53.4857" height="53.4857" rx="10.0286" fill="#6593E4"/>
<rect x="42.201" y="141.193" width="35.1" height="35.1" stroke="black" stroke-width="1.25357"/>
<rect x="42.201" y="141.193" width="35.1" height="35.1" stroke="black" stroke-width="1.25357"/>
<rect x="42.201" y="141.193" width="11.7" height="11.7" stroke="black" stroke-width="1.25357"/>
<rect x="42.201" y="152.893" width="11.7" height="11.7" stroke="black" stroke-width="1.25357"/>
<rect x="42.201" y="164.593" width="11.7" height="11.7" fill="black" stroke="black" stroke-width="1.25357"/>
<rect x="53.9014" y="141.193" width="11.7" height="11.7" stroke="black" stroke-width="1.25357"/>
<rect x="53.9014" y="152.893" width="11.7" height="11.7" fill="black" stroke="black" stroke-width="1.25357"/>
<rect x="53.9014" y="164.593" width="11.7" height="11.7" stroke="black" stroke-width="1.25357"/>
<rect x="65.6006" y="141.193" width="11.7" height="11.7" fill="black" stroke="black" stroke-width="1.25357"/>
<rect x="65.6006" y="152.893" width="11.7" height="11.7" stroke="black" stroke-width="1.25357"/>
<rect x="65.6006" y="164.593" width="11.7" height="11.7" stroke="black" stroke-width="1.25357"/>
<path d="M38.2598 158.628L35.5068 152.893H82.0774L79.5539 164.593H35.5068L38.2598 158.628Z" fill="#6593E4" stroke="black" stroke-width="1.25357"/>
<path d="M50.2581 160.344C50.2581 160.781 50.0626 161.172 49.7542 161.405C49.4533 161.63 49.0397 161.728 48.5959 161.728H46.1213V156.463H48.1371C48.7388 156.463 49.1675 156.538 49.5286 156.749C49.8445 156.937 50.1378 157.298 50.1378 157.795C50.1378 158.449 49.7392 158.885 49.145 159.043C49.5962 159.118 50.2581 159.412 50.2581 160.344ZM48.9419 157.998C48.9419 157.524 48.5432 157.358 48.1296 157.358H47.3173V158.637H48.122C48.5809 158.637 48.9419 158.487 48.9419 157.998ZM49.0321 160.141C49.0321 159.652 48.641 159.517 48.2349 159.517H47.3173V160.811H48.1897C48.6711 160.811 49.0321 160.645 49.0321 160.141ZM55.8461 159.111C55.8461 159.916 55.6279 160.577 55.2218 161.059C54.8081 161.54 54.2214 161.834 53.5144 161.834C52.7397 161.834 52.2057 161.533 51.792 161.059C51.3483 160.555 51.1753 159.87 51.1753 159.111C51.1753 158.314 51.3934 157.516 51.9048 157.035C52.311 156.644 52.8149 156.396 53.5144 156.396C54.2139 156.396 54.7179 156.636 55.124 157.035C55.6054 157.516 55.8461 158.276 55.8461 159.111ZM54.5599 159.118C54.5599 158.156 54.3719 157.321 53.4994 157.321C52.6495 157.321 52.4614 158.231 52.4614 159.118C52.4614 160.344 52.7773 160.908 53.5144 160.908C54.244 160.908 54.5599 160.314 54.5599 159.118ZM61.2386 156.463V161.728H60.2457L58.0043 158.156V161.728H57.019V156.463H58.2826L60.2533 159.63V156.463H61.2386ZM66.7274 156.463V159.615C66.7274 159.968 66.7049 160.292 66.5996 160.615C66.3288 161.442 65.6293 161.834 64.7267 161.834C63.7865 161.834 62.9968 161.465 62.7486 160.593C62.6734 160.337 62.6508 160.036 62.6508 159.765V156.463H63.8768V159.66C63.8768 159.916 63.8918 160.186 63.9821 160.389C64.125 160.713 64.4108 160.893 64.8245 160.893C65.2081 160.893 65.4638 160.713 65.6143 160.397C65.712 160.194 65.7346 159.968 65.7346 159.66V156.463H66.7274ZM72.0335 160.111C72.0335 161.149 71.0858 161.834 69.9802 161.834C68.9874 161.834 68.2728 161.533 67.7313 160.818L68.5812 160.081C68.8745 160.525 69.4161 160.901 69.9501 160.901C70.424 160.901 70.8376 160.728 70.8376 160.322C70.8376 159.961 70.4616 159.833 70.0028 159.728C69.7245 159.66 69.4687 159.615 69.1152 159.502C68.5962 159.329 67.9118 158.915 67.9118 158.013C67.9118 157.426 68.2803 156.945 68.7241 156.681C69.1227 156.448 69.5364 156.396 70.0028 156.396C70.8 156.396 71.4168 156.711 71.8079 157.238L71.0106 157.945C70.8301 157.719 70.5067 157.328 69.9351 157.328C69.386 157.328 69.1002 157.554 69.1002 157.84C69.1002 158.231 69.4838 158.351 69.92 158.456C70.281 158.539 70.5744 158.599 70.9429 158.735C71.3867 158.9 72.0335 159.209 72.0335 160.111Z" fill="white"/>
</svg>
