<svg width="414" height="141" viewBox="0 0 414 141" fill="none" xmlns="http://www.w3.org/2000/svg">
<rect x="292" y="49.4865" width="40.2811" height="40.2811" rx="7.48077" fill="#6CAA65"/>
<path d="M308.498 74.1927L308.706 77.0107C308.711 77.0647 308.705 77.1193 308.687 77.1706C308.669 77.2219 308.64 77.2686 308.602 77.3073L307.564 78.4494C307.512 78.5069 307.479 78.578 307.467 78.6542C307.455 78.7304 307.465 78.8085 307.496 78.879C307.528 78.9495 307.579 79.0094 307.643 79.0516C307.708 79.0938 307.783 79.1164 307.861 79.1168H311.227C311.28 79.117 311.332 79.1068 311.381 79.0867C311.429 79.0667 311.474 79.0372 311.511 78.9999C311.548 78.9627 311.578 78.9185 311.598 78.8698C311.618 78.8211 311.628 78.769 311.628 78.7163V74.2669C311.627 74.1635 311.586 74.0645 311.515 73.99C311.443 73.9156 311.345 73.8713 311.242 73.8664L308.899 73.7774C308.844 73.7726 308.788 73.7801 308.736 73.7995C308.685 73.8189 308.638 73.8496 308.599 73.8894C308.561 73.9292 308.532 73.9771 308.514 74.0296C308.497 74.0821 308.491 74.1378 308.498 74.1927V74.1927Z" fill="#6CAA65" stroke="black" stroke-width="0.661063" stroke-linecap="round" stroke-linejoin="round"/>
<path d="M311.909 79.9919H306.451V80.9263H311.909V79.9919Z" fill="#8E8E8E" stroke="black" stroke-width="0.624338" stroke-linecap="round" stroke-linejoin="round"/>
<path d="M306.451 79.5767C306.452 79.4611 306.478 79.3471 306.526 79.2422C306.575 79.1374 306.645 79.0441 306.733 78.9686L307.949 77.8859C307.998 77.8442 308.035 77.7913 308.058 77.7319C308.082 77.6724 308.09 77.6082 308.083 77.5447L308.008 76.64H311.909V80.0068H306.451V79.5767Z" fill="white" stroke="black" stroke-width="0.624338" stroke-linecap="round" stroke-linejoin="round"/>
<path d="M309.077 77.9155H310.486" stroke="black" stroke-width="0.624338" stroke-linecap="round" stroke-linejoin="round"/>
<path d="M308.439 78.8054H310.485" stroke="black" stroke-width="0.624338" stroke-linecap="round" stroke-linejoin="round"/>
<path d="M313.126 78.7166V74.2672C313.127 74.1638 313.167 74.0648 313.239 73.9903C313.311 73.9158 313.408 73.8716 313.511 73.8667L315.855 73.7777C315.91 73.7738 315.966 73.7818 316.018 73.8012C316.07 73.8207 316.118 73.8512 316.157 73.8905C316.196 73.9299 316.227 73.9773 316.246 74.0295C316.266 74.0817 316.274 74.1374 316.27 74.193L316.062 76.8182C316.057 76.8722 316.063 76.9268 316.081 76.9781C316.099 77.0294 316.128 77.0761 316.166 77.1148" fill="#6CAA65"/>
<path d="M313.126 78.7166V74.2672C313.127 74.1638 313.167 74.0648 313.239 73.9903C313.311 73.9158 313.408 73.8716 313.511 73.8667L315.855 73.7777C315.91 73.7738 315.966 73.7818 316.018 73.8012C316.07 73.8207 316.118 73.8512 316.157 73.8905C316.196 73.9299 316.227 73.9773 316.246 74.0295C316.266 74.0817 316.274 74.1374 316.27 74.193L316.062 76.8182C316.057 76.8722 316.063 76.9268 316.081 76.9781C316.099 77.0294 316.128 77.0761 316.166 77.1148" stroke="black" stroke-width="0.661063" stroke-linecap="round" stroke-linejoin="round"/>
<path d="M318.303 80.0219H312.845V80.9562H318.303V80.0219Z" fill="#8E8E8E" stroke="black" stroke-width="0.624338" stroke-linecap="round" stroke-linejoin="round"/>
<path d="M318.303 79.6063C318.302 79.4908 318.276 79.3767 318.227 79.2719C318.179 79.167 318.108 79.0737 318.021 78.9982L316.805 77.9155C316.756 77.8739 316.719 77.821 316.696 77.7615C316.672 77.7021 316.664 77.6378 316.671 77.5744L316.745 76.6697H312.845V80.0364H318.303V79.6063Z" fill="white" stroke="black" stroke-width="0.624338" stroke-linecap="round" stroke-linejoin="round"/>
<path d="M315.677 77.9454H314.268" stroke="black" stroke-width="0.624338" stroke-linecap="round" stroke-linejoin="round"/>
<path d="M316.315 78.8204H314.268" stroke="black" stroke-width="0.624338" stroke-linecap="round" stroke-linejoin="round"/>
<path d="M312.532 65.2939C314.564 65.2939 316.21 63.6472 316.21 61.6157C316.21 59.5843 314.564 57.9375 312.532 57.9375C310.501 57.9375 308.854 59.5843 308.854 61.6157C308.854 63.6472 310.501 65.2939 312.532 65.2939Z" fill="white" stroke="black" stroke-width="0.661063" stroke-linecap="round" stroke-linejoin="round"/>
<path d="M310.352 58.6197L308.305 56.4098" stroke="black" stroke-width="0.661063" stroke-linecap="round" stroke-linejoin="round"/>
<path d="M314.92 58.7828L317.115 56.7212" stroke="black" stroke-width="0.661063" stroke-linecap="round" stroke-linejoin="round"/>
<path d="M316.775 75.7501L307.312 75.4238C306.393 75.3886 305.525 74.9916 304.897 74.3194C304.269 73.6471 303.933 72.754 303.96 71.8346L304.242 63.6772C304.275 62.7571 304.671 61.8874 305.344 61.2591C306.017 60.6307 306.911 60.2948 307.831 60.3253L317.294 60.6516C318.213 60.6867 319.081 61.0837 319.709 61.756C320.337 62.4283 320.673 63.3214 320.646 64.2408L320.364 72.3981C320.331 73.3181 319.935 74.1875 319.262 74.8158C318.589 75.4442 317.695 75.7801 316.775 75.7501V75.7501Z" fill="white" stroke="black" stroke-width="0.661063" stroke-linecap="round" stroke-linejoin="round"/>
<path d="M316.433 71.7754C317.105 71.7754 317.649 71.2309 317.649 70.5592C317.649 69.8875 317.105 69.343 316.433 69.343C315.761 69.343 315.217 69.8875 315.217 70.5592C315.217 71.2309 315.761 71.7754 316.433 71.7754Z" fill="black" stroke="black" stroke-width="0.661063" stroke-linecap="round" stroke-linejoin="round"/>
<path d="M312.236 71.6271C312.907 71.6271 313.452 71.0826 313.452 70.4109C313.452 69.7392 312.907 69.1947 312.236 69.1947C311.564 69.1947 311.019 69.7392 311.019 70.4109C311.019 71.0826 311.564 71.6271 312.236 71.6271Z" fill="black" stroke="black" stroke-width="0.661063" stroke-linecap="round" stroke-linejoin="round"/>
<path d="M308.024 71.4788C308.695 71.4788 309.24 70.9343 309.24 70.2626C309.24 69.5909 308.695 69.0464 308.024 69.0464C307.352 69.0464 306.807 69.5909 306.807 70.2626C306.807 70.9343 307.352 71.4788 308.024 71.4788Z" fill="black" stroke="black" stroke-width="0.661063" stroke-linecap="round" stroke-linejoin="round"/>
<path d="M310.308 67.2516L306.956 67.1329C306.866 67.1293 306.778 67.108 306.697 67.0702C306.616 67.0324 306.542 66.9789 306.482 66.9127C306.421 66.8466 306.374 66.7691 306.344 66.6847C306.313 66.6003 306.299 66.5107 306.304 66.421L306.393 63.7513C306.396 63.6617 306.418 63.5736 306.455 63.4922C306.493 63.4107 306.547 63.3376 306.613 63.277C306.679 63.2163 306.756 63.1693 306.841 63.1388C306.925 63.1082 307.015 63.0946 307.104 63.0988L310.456 63.2174L310.308 67.2516Z" fill="#77A76A" stroke="black" stroke-width="0.661063" stroke-linecap="round" stroke-linejoin="round"/>
<path d="M310.467 63.2233L310.327 67.255L314.373 67.3963L314.514 63.3646L310.467 63.2233Z" fill="white" stroke="black" stroke-width="0.661063" stroke-linecap="round" stroke-linejoin="round"/>
<path d="M317.724 67.5188L314.357 67.4001L314.49 63.366L317.842 63.4846C317.932 63.4882 318.02 63.5096 318.101 63.5473C318.183 63.5851 318.256 63.6387 318.317 63.7048C318.377 63.771 318.424 63.8485 318.455 63.9329C318.485 64.0173 318.499 64.1069 318.495 64.1965L318.406 66.8662C318.404 66.954 318.385 67.0406 318.35 67.121C318.315 67.2014 318.264 67.2741 318.201 67.3348C318.137 67.3954 318.062 67.4429 317.981 67.4745C317.899 67.5061 317.811 67.5212 317.724 67.5188Z" fill="#DEBC48" stroke="black" stroke-width="0.661063" stroke-linecap="round" stroke-linejoin="round"/>
<rect width="89.6601" height="89.6601" rx="7.68515" fill="#F7DA21"/>
<path d="M1.92114 27.5383C2.13914 33.957 6.23741 47.6809 20.8866 51.2269C39.198 55.6595 36.0008 31.2442 23.4298 35.2408C10.8589 39.2373 19.3606 59.3654 32.3675 60.1647C43.0492 60.8211 42.1046 52.1716 55.7655 52.1716" stroke="black" stroke-width="0.943398" stroke-dasharray="1.74 1.74"/>
<path d="M62.7609 40.3582H68.0562V37.1976L66.5689 38.162L65.4086 37.1976L64.2482 38.162L62.7609 37.1976V40.3582Z" fill="#5BA0D4"/>
<path fill-rule="evenodd" clip-rule="evenodd" d="M62.452 36.6292L64.2255 37.7791L65.4086 36.7959L66.5915 37.7791L68.365 36.6292V40.6669H62.452V36.6292ZM67.7474 37.7658L66.5463 38.5446L65.4086 37.599L64.2708 38.5446L63.0697 37.7658V40.0492H67.7474V37.7658Z" fill="black"/>
<path d="M69.8311 37.2598L65.3671 38.9654L60.9031 37.2598L65.3671 35.5541L69.8311 37.2598Z" fill="#5BA0D4"/>
<path fill-rule="evenodd" clip-rule="evenodd" d="M65.3678 35.2236L70.697 37.26L65.3678 39.2962L60.0386 37.26L65.3678 35.2236ZM61.769 37.26L65.3678 38.635L68.9666 37.26L65.3678 35.8848L61.769 37.26Z" fill="black"/>
<path fill-rule="evenodd" clip-rule="evenodd" d="M65.6451 37.4511C65.6453 37.4514 65.6454 37.4518 65.3672 37.5858C65.089 37.7198 65.0891 37.7201 65.0893 37.7204L65.0896 37.7211L65.0902 37.7223L65.0913 37.7245L65.0931 37.728C65.0942 37.73 65.0949 37.7312 65.0952 37.7317C65.0958 37.7327 65.0949 37.7312 65.0924 37.7278C65.0874 37.721 65.0763 37.7073 65.0575 37.6917C65.023 37.663 64.9507 37.6174 64.8139 37.6068C64.5259 37.5843 63.9145 37.7159 62.7986 38.5957C61.6338 39.5141 60.7677 39.8155 60.1623 39.8652C59.8592 39.8901 59.6269 39.8513 59.4626 39.7998C59.3808 39.7741 59.3171 39.7457 59.2707 39.7214C59.2475 39.7093 59.2287 39.6982 59.2142 39.6891C59.207 39.6845 59.2008 39.6804 59.1958 39.6769C59.1932 39.6752 59.1909 39.6736 59.1889 39.6721L59.1861 39.6701L59.1848 39.6692L59.1842 39.6687C59.1839 39.6685 59.1837 39.6683 59.3677 39.4204C59.5518 39.1724 59.5516 39.1722 59.5513 39.172L59.5508 39.1716L59.5498 39.1709L59.548 39.1696L59.5454 39.1678C59.5442 39.1669 59.5437 39.1667 59.5442 39.1669C59.545 39.1675 59.5493 39.1702 59.5572 39.1743C59.5728 39.1824 59.6026 39.1964 59.6474 39.2104C59.736 39.2382 59.8884 39.268 60.1117 39.2496C60.5591 39.2129 61.3128 38.9807 62.4162 38.1107C63.5685 37.2022 64.337 36.9501 64.8619 36.991C65.1314 37.012 65.3238 37.1099 65.4523 37.2167C65.5151 37.2689 65.5601 37.321 65.5909 37.363C65.6063 37.384 65.6182 37.4027 65.6271 37.4178C65.6316 37.4254 65.6353 37.4321 65.6383 37.4378C65.6398 37.4406 65.6412 37.4432 65.6424 37.4455L65.644 37.4489L65.6448 37.4504L65.6451 37.4511Z" fill="black"/>
<path d="M65.0858 46.9105V44.692C65.0858 44.2532 64.9557 43.8243 64.7119 43.4595C64.4681 43.0946 64.1216 42.8103 63.7163 42.6424C63.3109 42.4745 62.8648 42.4305 62.4345 42.5161C62.0041 42.6017 61.6088 42.813 61.2986 43.1233C60.9883 43.4336 60.777 43.8288 60.6914 44.2592C60.6058 44.6895 60.6498 45.1356 60.8177 45.541C60.9856 45.9463 61.2699 46.2928 61.6348 46.5366C61.9996 46.7804 62.4285 46.9105 62.8673 46.9105H65.0858Z" fill="white"/>
<path d="M69.603 46.2766C69.8629 46.0194 70.0553 45.702 70.1629 45.3526C70.2705 45.0032 70.2901 44.6326 70.2199 44.2738C70.1498 43.9149 69.992 43.579 69.7607 43.2959C69.5293 43.0128 69.2316 42.7912 68.894 42.6509C68.5563 42.5106 68.1893 42.4559 67.8254 42.4917C67.4615 42.5276 67.1122 42.6527 66.8084 42.8562C66.5046 43.0596 66.2558 43.335 66.0841 43.6577C65.9124 43.9805 65.8231 44.3408 65.8242 44.7064V46.9249H68.0427C68.3327 46.9248 68.6197 46.8675 68.8875 46.7562C69.1552 46.645 69.3984 46.482 69.603 46.2766V46.2766Z" fill="white"/>
<path d="M59.108 51.9979C59.108 54.0709 60.3948 55.7101 62.241 56.1883V47.9208C60.4293 48.5493 59.108 50.191 59.108 51.9979Z" fill="white"/>
<path d="M67.4881 56.3438C68.1425 56.2886 68.7789 56.1014 69.3589 55.7934C69.9389 55.4854 70.4505 55.063 70.8626 54.5517C70.4109 54.6704 69.936 54.6689 69.485 54.5474C69.034 54.4259 68.6227 54.1886 68.2917 53.8591L68.8093 53.3365C69.1713 53.6971 69.6602 53.9016 70.1711 53.9062C70.6821 53.9108 71.1745 53.7151 71.543 53.3611C71.7067 52.9254 71.7902 52.4635 71.7895 51.998C71.8045 51.4288 71.7042 50.8624 71.4947 50.333C71.2852 49.8035 70.9708 49.3219 70.5704 48.9171C70.1699 48.5123 69.6918 48.1926 69.1646 47.9774C68.6375 47.7621 68.0722 47.6557 67.5029 47.6646H65.8242V56.3438H67.4881ZM68.5628 50.2922C68.7165 50.2922 68.8667 50.3378 68.9945 50.4233C69.1222 50.5087 69.2217 50.6301 69.2804 50.7721C69.3391 50.9142 69.3543 51.0704 69.3242 51.2211C69.294 51.3718 69.2198 51.5101 69.111 51.6186C69.0021 51.7271 68.8636 51.8009 68.7128 51.8306C68.562 51.8602 68.4058 51.8445 68.264 51.7854C68.1221 51.7262 68.001 51.6263 67.916 51.4983C67.831 51.3703 67.7859 51.2199 67.7863 51.0662C67.7863 50.9644 67.8064 50.8635 67.8455 50.7695C67.8845 50.6754 67.9418 50.59 68.0139 50.5181C68.086 50.4462 68.1717 50.3892 68.2659 50.3505C68.36 50.3117 68.461 50.2919 68.5628 50.2922V50.2922Z" fill="white"/>
<path d="M63.4094 47.6645C63.2655 47.6766 63.1223 47.6963 62.9805 47.7236V56.3239C63.1111 56.3363 63.2467 56.3436 63.3823 56.3436H65.0856V47.662H63.4094V47.6645Z" fill="white"/>
<path d="M68.5631 51.8404C68.7167 51.8404 68.8668 51.7949 68.9945 51.7096C69.1222 51.6242 69.2217 51.503 69.2805 51.3611C69.3392 51.2192 69.3546 51.0631 69.3246 50.9125C69.2947 50.7618 69.2207 50.6235 69.1121 50.5149C69.0035 50.4063 68.8652 50.3324 68.7146 50.3024C68.564 50.2724 68.4078 50.2878 68.2659 50.3466C68.1241 50.4054 68.0028 50.5049 67.9175 50.6326C67.8322 50.7603 67.7866 50.9104 67.7866 51.0639C67.7866 51.2699 67.8684 51.4674 68.014 51.613C68.1597 51.7586 68.3572 51.8404 68.5631 51.8404V51.8404Z" fill="black"/>
<path d="M69.4492 47.3047C69.698 47.1694 69.9262 46.9992 70.127 46.7994C70.4257 46.4997 70.6566 46.1394 70.8041 45.7429C70.9517 45.3463 71.0124 44.9227 70.9823 44.5007C70.9521 44.0786 70.8318 43.668 70.6294 43.2964C70.427 42.9249 70.1472 42.601 69.809 42.3468C69.4707 42.0926 69.0819 41.9139 68.6687 41.8228C68.2555 41.7317 67.8276 41.7303 67.4138 41.8187C67.0001 41.9071 66.6101 42.0832 66.2702 42.3352C65.9303 42.5872 65.6484 42.9092 65.4436 43.2794C65.2202 42.8671 64.902 42.5138 64.5152 42.2486C64.1283 41.9835 63.6841 41.8141 63.2189 41.7545C62.7538 41.6948 62.2811 41.7467 61.8399 41.9056C61.3987 42.0646 61.0017 42.3262 60.6815 42.6689C60.3613 43.0115 60.1272 43.4254 59.9984 43.8763C59.8697 44.3272 59.85 44.8023 59.941 45.2623C60.032 45.7224 60.231 46.1542 60.5217 46.5222C60.8124 46.8901 61.1865 47.1837 61.613 47.3787C59.8382 48.1428 58.5416 49.7944 58.3888 51.6332H56.9985V52.3727H58.3863C58.4553 53.65 59.0133 54.8518 59.9444 55.7288C60.8756 56.6058 62.1086 57.0909 63.3878 57.0833H67.5339C70.2897 56.8664 72.5452 54.5863 72.5452 51.998C72.5573 50.9959 72.2688 50.0131 71.717 49.1766C71.1651 48.34 70.3752 47.688 69.4492 47.3047V47.3047ZM62.2416 56.1959C60.3953 55.7029 59.1086 54.0711 59.1086 52.0054C59.1086 50.1986 60.4372 48.5545 62.2416 47.9284V56.1959ZM65.0861 56.3438H63.3878C63.2522 56.3438 63.1166 56.3438 62.986 56.3241V47.7238C63.1278 47.6965 63.271 47.6767 63.4149 47.6646H65.0911L65.0861 56.3438ZM65.0861 46.9202H62.8677C62.2813 46.919 61.719 46.687 61.3024 46.2744C61.0425 46.0172 60.8502 45.6998 60.7425 45.3504C60.6349 45.001 60.6153 44.6304 60.6855 44.2715C60.7557 43.9127 60.9134 43.5768 61.1448 43.2937C61.3761 43.0105 61.6738 42.789 62.0115 42.6487C62.3491 42.5084 62.7162 42.4537 63.08 42.4895C63.4439 42.5253 63.7933 42.6505 64.0971 42.8539C64.4009 43.0574 64.6497 43.3327 64.8214 43.6555C64.9931 43.9783 65.0823 44.3385 65.0812 44.7042L65.0861 46.9202ZM65.8256 44.7017C65.8256 44.2629 65.9557 43.834 66.1995 43.4692C66.4433 43.1044 66.7898 42.82 67.1951 42.6521C67.6005 42.4842 68.0466 42.4402 68.4769 42.5258C68.9073 42.6114 69.3026 42.8227 69.6128 43.133C69.9231 43.4433 70.1344 43.8386 70.22 44.2689C70.3056 44.6992 70.2616 45.1453 70.0937 45.5507C69.9258 45.9561 69.6415 46.3025 69.2766 46.5463C68.9118 46.7901 68.4829 46.9202 68.0441 46.9202H65.8256V44.7017ZM68.8107 53.3365L68.2931 53.8591C68.6241 54.1886 69.0355 54.4259 69.4864 54.5474C69.9374 54.6689 70.4123 54.6704 70.8641 54.5518C70.4512 55.0617 69.9394 55.4827 69.3594 55.7894C68.7794 56.0961 68.1433 56.2822 67.4895 56.3364H65.8256V47.6621H67.5043C68.0751 47.6513 68.6421 47.7563 69.1712 47.9707C69.7002 48.1852 70.1803 48.5048 70.5824 48.9101C70.9844 49.3154 71.3001 49.798 71.5104 50.3287C71.7207 50.8595 71.8211 51.4274 71.8057 51.998C71.8064 52.4636 71.7229 52.9254 71.5592 53.3612C71.19 53.7196 70.6944 53.9181 70.1799 53.9135C69.6654 53.9089 69.1734 53.7016 68.8107 53.3365V53.3365Z" fill="black"/>
<rect x="69.7136" y="100" width="39.9326" height="39.9326" rx="7.48737" fill="#B7A6FF"/>
<rect x="76.577" y="115.599" width="8.73527" height="8.73527" stroke="black" stroke-width="0.935921"/>
<rect x="76.577" y="106.863" width="8.73527" height="8.73527" stroke="black" stroke-width="0.935921"/>
<rect x="94.0476" y="124.334" width="8.73527" height="8.73527" fill="white" stroke="black" stroke-width="0.935921"/>
<rect x="76.577" y="124.334" width="8.73527" height="8.73527" stroke="black" stroke-width="0.935921"/>
<rect x="85.3123" y="124.334" width="8.73527" height="8.73527" fill="#FADB1F" stroke="black" stroke-width="0.935921"/>
<rect x="94.0476" y="115.599" width="8.73527" height="8.73527" stroke="black" stroke-width="0.935921"/>
<rect x="94.0476" y="106.863" width="8.73527" height="8.73527" stroke="black" stroke-width="0.935921"/>
<rect x="85.3123" y="115.599" width="8.73527" height="8.73527" stroke="black" stroke-width="0.935921"/>
<rect x="85.3123" y="106.863" width="8.73527" height="8.73527" stroke="black" stroke-width="0.935921"/>
<rect x="270" y="99" width="100.703" height="40.2811" rx="7.55271" fill="#95BDF9"/>
<rect x="278.182" y="117.252" width="6.92331" height="6.92331" fill="black" stroke="black" stroke-width="0.944088"/>
<rect x="278.182" y="124.176" width="6.92331" height="6.92331" fill="white" stroke="black" stroke-width="0.944088"/>
<rect x="285.105" y="117.252" width="6.92331" height="6.92331" fill="white" stroke="black" stroke-width="0.944088"/>
<rect x="285.105" y="124.176" width="6.92331" height="6.92331" fill="white" stroke="black" stroke-width="0.944088"/>
<rect x="295.805" y="124.176" width="6.92331" height="6.92331" fill="#D8E8FF" stroke="black" stroke-width="0.944088"/>
<rect x="302.728" y="117.252" width="6.92331" height="6.92331" fill="#D8E8FF" stroke="black" stroke-width="0.944088"/>
<rect x="302.728" y="124.176" width="6.92331" height="6.92331" fill="#D8E8FF" stroke="black" stroke-width="0.944088"/>
<rect x="295.805" y="117.252" width="6.92331" height="6.92331" fill="#538AE9" stroke="black" stroke-width="0.944088"/>
<rect x="331.051" y="124.176" width="6.92331" height="6.92331" fill="#D8E8FF" stroke="black" stroke-width="0.944088"/>
<rect x="337.974" y="117.252" width="6.92331" height="6.92331" fill="#538AE9" stroke="black" stroke-width="0.944088"/>
<rect x="337.974" y="124.176" width="6.92331" height="6.92331" fill="#538AE9" stroke="black" stroke-width="0.944088"/>
<rect x="331.051" y="117.252" width="6.92331" height="6.92331" fill="#538AE9" stroke="black" stroke-width="0.944088"/>
<path d="M287.871 106.888V111.294H286.889V107.927L285.832 111.294H285.165L284.107 107.864V111.294H283.296V106.888H284.68L285.605 109.777L286.505 106.888H287.871Z" fill="black"/>
<path d="M304.537 106.888V107.706H303.348V111.294H302.328V107.706H301.139V106.888H304.537Z" fill="black"/>
<path d="M322.805 106.888H323.63L322.484 111.294H321.584L320.842 108.392L320.105 111.294H319.167L318.041 106.888H319.023L319.74 109.941L320.502 106.888H321.332L322.094 109.909L322.805 106.888Z" fill="black"/>
<path d="M339.783 106.888V107.706H338.594V111.294H337.574V107.706H336.385V106.888H339.783Z" fill="black"/>
<path d="M357.396 106.888V107.706H355.414V108.707H356.729V109.525H355.414V111.294H354.394V106.888H357.396Z" fill="black"/>
<line x1="278.182" y1="113.633" x2="292.028" y2="113.633" stroke="black" stroke-width="0.944088"/>
<line x1="295.805" y1="113.633" x2="309.652" y2="113.633" stroke="black" stroke-width="0.944088"/>
<line x1="313.428" y1="113.633" x2="327.275" y2="113.633" stroke="black" stroke-width="0.944088"/>
<line x1="331.051" y1="113.633" x2="344.898" y2="113.633" stroke="black" stroke-width="0.944088"/>
<line x1="348.674" y1="113.633" x2="362.521" y2="113.633" stroke="black" stroke-width="0.944088"/>
<rect x="313.428" y="117.252" width="13.8466" height="13.8466" fill="#538AE9" stroke="black" stroke-width="0.944088"/>
<path d="M320.472 119.847L321.686 122.453C321.706 122.495 321.748 122.524 321.794 122.529L324.637 122.808C324.752 122.819 324.798 122.957 324.714 123.033L322.504 125.025C322.469 125.058 322.454 125.105 322.464 125.15L323.108 127.79C323.135 127.902 323.012 127.991 322.911 127.931L320.421 126.469C320.379 126.444 320.326 126.444 320.283 126.469L317.792 127.933C317.69 127.993 317.566 127.904 317.594 127.792L318.238 125.152C318.249 125.106 318.235 125.058 318.198 125.027L315.989 123.031C315.904 122.955 315.952 122.817 316.065 122.806L318.908 122.528C318.954 122.523 318.996 122.494 319.016 122.451L320.23 119.845C320.278 119.745 320.426 119.745 320.472 119.847Z" fill="white"/>
<rect x="348.674" y="117.252" width="13.8466" height="13.8466" fill="#538AE9" stroke="black" stroke-width="0.944088"/>
<path d="M355.718 119.847L356.932 122.453C356.952 122.495 356.994 122.524 357.04 122.529L359.883 122.808C359.998 122.819 360.044 122.957 359.96 123.033L357.75 125.025C357.715 125.058 357.7 125.105 357.71 125.15L358.354 127.79C358.38 127.902 358.258 127.991 358.157 127.931L355.667 126.469C355.625 126.444 355.572 126.444 355.529 126.469L353.038 127.933C352.936 127.993 352.812 127.904 352.84 127.792L353.484 125.152C353.495 125.106 353.48 125.058 353.444 125.027L351.235 123.031C351.15 122.955 351.198 122.817 351.311 122.806L354.154 122.528C354.2 122.523 354.242 122.494 354.262 122.451L355.476 119.845C355.524 119.745 355.672 119.745 355.718 119.847Z" fill="white"/>
<rect x="292" y="40.8975" width="39.8975" height="87.2757" rx="7.48077" transform="rotate(-90 292 40.8975)" fill="#E05C56"/>
<rect x="303.844" y="26.5598" width="13.7148" height="63.5866" transform="rotate(-90 303.844 26.5598)" fill="white" stroke="black" stroke-width="0.935097"/>
<path d="M367.431 19.7024L354.34 26.5598L316.936 12.8451L335.638 26.5598L303.221 19.7024L316.936 26.5598L335.638 12.8451" stroke="black" stroke-width="0.623398" stroke-dasharray="1.25 1.25"/>
<circle cx="303.221" cy="19.7018" r="1.87019" transform="rotate(-90 303.221 19.7018)" fill="white" stroke="black" stroke-width="0.935097"/>
<circle cx="367.431" cy="19.7018" r="1.87019" transform="rotate(-90 367.431 19.7018)" fill="white" stroke="black" stroke-width="0.935097"/>
<circle cx="316.936" cy="26.5596" r="1.87019" transform="rotate(-90 316.936 26.5596)" fill="white" stroke="black" stroke-width="0.935097"/>
<circle cx="335.638" cy="26.5596" r="1.87019" transform="rotate(-90 335.638 26.5596)" fill="white" stroke="black" stroke-width="0.935097"/>
<circle cx="354.34" cy="26.5596" r="1.87019" transform="rotate(-90 354.34 26.5596)" fill="white" stroke="black" stroke-width="0.935097"/>
<circle cx="316.936" cy="12.8448" r="1.87019" transform="rotate(-90 316.936 12.8448)" fill="white" stroke="black" stroke-width="0.935097"/>
<circle cx="335.638" cy="12.8448" r="1.87019" transform="rotate(-90 335.638 12.8448)" fill="white" stroke="black" stroke-width="0.935097"/>
<circle cx="354.34" cy="12.8448" r="1.87019" transform="rotate(-90 354.34 12.8448)" fill="white" stroke="black" stroke-width="0.935097"/>
<rect x="338.995" y="49.4865" width="74.1284" height="39.5351" rx="7.41284" fill="#B6E254"/>
<rect x="353.821" y="61.8413" width="14.8257" height="14.8257" fill="white"/>
<path d="M367.991 69.2534L361.233 76.0112L354.475 69.2534L361.233 62.4956L367.991 69.2534Z" fill="#BEE65F" stroke="black" stroke-width="0.926605"/>
<path d="M362.833 69.2539L361.233 70.8545L359.631 69.2539L361.233 67.6523L362.833 69.2539Z" fill="black" stroke="black" stroke-width="0.926605"/>
<rect x="353.821" y="61.8413" width="14.8257" height="14.8257" stroke="black" stroke-width="0.926605"/>
<rect x="368.646" y="61.8412" width="14.8257" height="14.8257" fill="black" stroke="black" stroke-width="0.926605"/>
<path d="M381.301 71.4249L383.472 69.254L381.301 67.0831V64.0121H378.23L376.059 61.8412L373.888 64.0121H370.817V67.0831L368.646 69.254L370.817 71.4249V74.496H373.888L376.059 76.6669L378.23 74.496H381.301V71.4249Z" fill="white"/>
<path d="M378.212 67.104H373.909V71.407H378.212V67.104Z" fill="#BEE65F"/>
<rect x="368.646" y="61.8412" width="14.8257" height="14.8257" stroke="black" stroke-width="0.926605"/>
<rect x="383.472" y="61.8412" width="14.8257" height="14.8257" fill="#BEE75C"/>
<path d="M397.642 69.2533L390.884 76.0111L384.126 69.2533L390.884 62.4955L397.642 69.2533Z" fill="white" stroke="white" stroke-width="0.926605"/>
<path d="M390.861 72.3427C391.244 72.3427 393.356 72.3427 393.356 70.2473C393.356 68.0507 393.163 66.1607 393.163 66.1607C393.163 66.1607 392.492 66.3156 391.819 66.9288C391.386 66.009 390.861 65.5476 390.861 65.5476C390.861 65.5476 390.333 66.0596 389.903 66.9288C389.232 66.3156 388.559 66.1607 388.559 66.1607C388.559 66.1607 388.414 68.0507 388.414 70.2473C388.414 72.3427 390.526 72.3427 390.861 72.3427Z" fill="black"/>
<rect x="383.472" y="61.8412" width="14.8257" height="14.8257" stroke="black" stroke-width="0.926605"/>
<rect x="23" y="100" width="40.2986" height="40.2986" rx="7.55599" fill="#6593E4"/>
<rect x="29.9325" y="106.926" width="26.446" height="26.446" stroke="black" stroke-width="0.944499"/>
<rect x="29.9325" y="106.926" width="26.446" height="26.446" stroke="black" stroke-width="0.944499"/>
<rect x="29.9325" y="106.926" width="8.81532" height="8.81532" stroke="black" stroke-width="0.944499"/>
<rect x="29.9325" y="115.742" width="8.81532" height="8.81532" stroke="black" stroke-width="0.944499"/>
<rect x="29.9325" y="124.557" width="8.81532" height="8.81532" fill="black" stroke="black" stroke-width="0.944499"/>
<rect x="38.748" y="106.926" width="8.81532" height="8.81532" stroke="black" stroke-width="0.944499"/>
<rect x="38.748" y="115.742" width="8.81532" height="8.81532" fill="black" stroke="black" stroke-width="0.944499"/>
<rect x="38.748" y="124.557" width="8.81532" height="8.81532" stroke="black" stroke-width="0.944499"/>
<rect x="47.5627" y="106.926" width="8.81532" height="8.81532" fill="black" stroke="black" stroke-width="0.944499"/>
<rect x="47.5627" y="115.742" width="8.81532" height="8.81532" stroke="black" stroke-width="0.944499"/>
<rect x="47.5627" y="124.557" width="8.81532" height="8.81532" stroke="black" stroke-width="0.944499"/>
<path d="M26.963 120.063L24.8888 115.742H59.9772L58.0759 124.557H24.8888L26.963 120.063Z" fill="#6593E4" stroke="black" stroke-width="0.944499"/>
<path d="M36.0031 121.082C36.0031 121.41 35.8558 121.705 35.6234 121.881C35.3967 122.051 35.0851 122.125 34.7507 122.125H32.8863V118.158H34.405C34.8584 118.158 35.1814 118.214 35.4534 118.373C35.6914 118.515 35.9124 118.787 35.9124 119.161C35.9124 119.654 35.6121 119.982 35.1644 120.101C35.5044 120.158 36.0031 120.379 36.0031 121.082ZM35.0114 119.314C35.0114 118.957 34.711 118.832 34.3993 118.832H33.7873V119.795H34.3937C34.7394 119.795 35.0114 119.682 35.0114 119.314ZM35.0794 120.929C35.0794 120.56 34.7847 120.458 34.4787 120.458H33.7873V121.433H34.4447C34.8074 121.433 35.0794 121.308 35.0794 120.929ZM40.2133 120.152C40.2133 120.759 40.049 121.257 39.743 121.62C39.4313 121.983 38.9892 122.204 38.4565 122.204C37.8728 122.204 37.4705 121.977 37.1588 121.62C36.8245 121.24 36.6941 120.725 36.6941 120.152C36.6941 119.552 36.8585 118.951 37.2438 118.588C37.5498 118.294 37.9295 118.107 38.4565 118.107C38.9836 118.107 39.3633 118.288 39.6693 118.588C40.032 118.951 40.2133 119.523 40.2133 120.152ZM39.2443 120.158C39.2443 119.433 39.1026 118.804 38.4452 118.804C37.8048 118.804 37.6632 119.489 37.6632 120.158C37.6632 121.082 37.9012 121.507 38.4565 121.507C39.0062 121.507 39.2443 121.059 39.2443 120.158ZM44.2763 118.158V122.125H43.5282L41.8395 119.433V122.125H41.0971V118.158H42.0491L43.5339 120.543V118.158H44.2763ZM48.4118 118.158V120.532C48.4118 120.798 48.3948 121.042 48.3155 121.286C48.1115 121.909 47.5845 122.204 46.9044 122.204C46.196 122.204 45.601 121.926 45.414 121.269C45.3573 121.076 45.3403 120.849 45.3403 120.645V118.158H46.264V120.566C46.264 120.759 46.2754 120.963 46.3434 121.116C46.4511 121.359 46.6664 121.495 46.9781 121.495C47.2671 121.495 47.4598 121.359 47.5731 121.121C47.6468 120.968 47.6638 120.798 47.6638 120.566V118.158H48.4118ZM52.4097 120.906C52.4097 121.688 51.6957 122.204 50.8626 122.204C50.1146 122.204 49.5762 121.977 49.1682 121.439L49.8086 120.883C50.0296 121.218 50.4376 121.501 50.8399 121.501C51.197 121.501 51.5087 121.371 51.5087 121.065C51.5087 120.793 51.2253 120.696 50.8796 120.617C50.6699 120.566 50.4773 120.532 50.2109 120.447C49.8199 120.317 49.3042 120.005 49.3042 119.325C49.3042 118.883 49.5819 118.52 49.9162 118.322C50.2166 118.146 50.5283 118.107 50.8796 118.107C51.4803 118.107 51.945 118.345 52.2397 118.741L51.639 119.274C51.503 119.104 51.2593 118.809 50.8286 118.809C50.4149 118.809 50.1996 118.979 50.1996 119.195C50.1996 119.489 50.4886 119.58 50.8173 119.659C51.0893 119.722 51.3103 119.767 51.588 119.869C51.9223 119.994 52.4097 120.226 52.4097 120.906Z" fill="white"/>
</svg>
