<svg width="24" height="24" viewBox="0 0 24 24" fill="none" xmlns="http://www.w3.org/2000/svg">
<g clip-path="url(#clip0_5391_571)">
<path d="M16.8201 3.38C16.4801 3.04 15.9201 3.04 15.5801 3.38L12.8001 6.16L11.5601 7.4L3.38012 15.58C3.22012 15.74 3.12012 15.97 3.12012 16.2V20C3.12012 20.48 3.51012 20.88 4.00012 20.88H7.80012C8.03012 20.88 8.26012 20.79 8.42012 20.62L20.6201 8.42C20.9601 8.08 20.9601 7.52 20.6201 7.18L16.8201 3.38ZM7.44012 19.12H4.88012V16.56L12.8101 8.64L15.3701 11.2L7.45012 19.12H7.44012ZM16.6001 9.96L14.0401 7.4L16.2001 5.24L18.7601 7.8L16.6001 9.96Z" fill="black"/>
</g>
<defs>
<clipPath id="clip0_5391_571">
<rect width="24" height="24" fill="white"/>
</clipPath>
</defs>
</svg>
