<svg width="64" height="64" viewBox="0 0 64 64" fill="none" xmlns="http://www.w3.org/2000/svg">
<path d="M43.7362 21.7388H43.7246V21.7504H43.7362V21.7388Z" fill="#7FA768"/>
<path d="M43.7246 23.3745V61.5141H57.5642C59.6412 61.5141 61.3308 59.846 61.3308 57.7905V42.369V23.4606L43.7246 23.3745Z" fill="#6AAA64"/>
<path d="M60.7173 6.79078V20.2214L43.7461 20.1461L43.8214 3.15332H57.0799C59.0816 3.15332 60.7173 4.7891 60.7173 6.79078Z" fill="white"/>
<path d="M41.4651 42.8854V61.4924H23.0303V42.7993L41.4651 42.8854Z" fill="#6AAA64"/>
<path d="M41.7227 22.1803L41.6258 41.4761L22.3516 41.3685L22.4377 22.105L41.7227 22.1803Z" fill="#D1B036"/>
<path d="M40.5935 3.15332L40.5182 20.1246L23.5254 20.06V3.15332H40.5935Z" fill="white"/>
<path d="M21.674 42.7021V61.589H6.80125C4.58434 61.589 2.77637 59.781 2.77637 57.5641V42.7021H21.674Z" fill="#6AAA64"/>
<path d="M20.286 23.3745L20.1999 40.3458H3.1748V23.3745H20.286Z" fill="white"/>
<path d="M20.2967 3.15332V20.1461H3.1748V6.79079C3.1748 4.7891 4.81059 3.15332 6.82303 3.15332H20.2967Z" fill="white"/>
<path d="M57.134 0H6.87674C3.08862 0 0 3.07785 0 6.86598V57.1233C0 60.9114 3.08862 64 6.87674 64H57.134C60.9221 64 64 60.9114 64 57.1233V6.86598C64 3.08862 60.9221 0 57.134 0ZM43.7787 21.8248H43.7895V21.8355H43.7787V21.8248ZM3.23928 23.4606H20.3504L20.2643 40.4318H3.23928V23.4606ZM20.3504 60.7822H6.87674C4.8643 60.7822 3.22852 59.1465 3.22852 57.134V43.6496H20.3504V60.7822ZM20.3504 20.232H3.23928V6.86598C3.23928 4.8643 4.87506 3.22852 6.88751 3.22852H20.3612V20.232H20.3504ZM40.5502 60.7822H23.5789V43.5742L40.5502 43.6603V60.7822ZM40.4641 40.4211L23.4929 40.335L23.5682 23.3637L40.5502 23.4283L40.4641 40.4211ZM40.5717 20.2105L23.5789 20.146V3.22852H40.647L40.5717 20.2105ZM60.7715 57.134C60.7715 59.1465 59.1357 60.7822 57.134 60.7822H43.7787V43.6496H60.7715V57.134ZM60.7715 40.4211H43.7034L43.7787 23.4498L60.7715 23.5251V40.4211ZM60.7715 20.3074L43.8002 20.232L43.8756 3.23928H57.134C59.1357 3.23928 60.7715 4.87506 60.7715 6.87674V20.3074Z" fill="black"/>
</svg>
