<svg width="29" height="28" viewBox="0 0 29 28" fill="none" xmlns="http://www.w3.org/2000/svg">
<g clip-path="url(#clip0_2267_2631)">
<path d="M28.875 0H0.875V28H28.875V0Z" fill="#FFABA8"/>
<path d="M23.688 5.18701H6.06198V22.813H23.688V5.18701Z" fill="#E20736"/>
<path d="M15.1019 7.17597L17.0908 11.5478C17.1234 11.6185 17.1913 11.6674 17.2674 11.6755L21.9246 12.1429C22.1121 12.1619 22.1881 12.3929 22.0496 12.5206L18.4303 15.8626C18.3733 15.917 18.3488 15.9958 18.3651 16.0718L19.4194 20.5008C19.4629 20.6882 19.2618 20.8377 19.096 20.7372L15.0176 18.2836C14.9497 18.2428 14.8628 18.2428 14.7921 18.2836L10.711 20.7399C10.5452 20.8404 10.3415 20.691 10.3876 20.5035L11.4419 16.0746C11.4609 15.9985 11.4365 15.917 11.3767 15.8653L7.75747 12.5178C7.61889 12.3901 7.69769 12.1592 7.88246 12.1402L12.5396 11.6728C12.6157 11.6647 12.6836 11.6158 12.7162 11.5451L14.7052 7.17325C14.784 7.00479 15.0258 7.00479 15.1019 7.17597Z" fill="white"/>
</g>
<g clip-path="url(#clip1_2267_2631)">
<path d="M25.3607 0.019043H4.3893C2.45993 0.019043 0.894066 1.58491 0.894066 3.51428V24.4857C0.894066 26.4151 2.45993 27.9809 4.3893 27.9809H25.3607C27.2901 27.9809 28.8559 26.4151 28.8559 24.4857V3.51428C28.8559 1.58491 27.2901 0.019043 25.3607 0.019043ZM15.574 1.41714H20.8169V6.65999H15.574V1.41714ZM2.29216 3.51428C2.29216 2.35894 3.23397 1.41714 4.3893 1.41714H14.176V6.65999H2.29216V3.51428ZM2.29216 8.05808H20.8169V13.3009H2.29216V8.05808ZM14.176 14.699V19.9419H8.9331V14.699H14.176ZM7.53501 26.5828H4.3893C3.23397 26.5828 2.29216 25.641 2.29216 24.4857V21.34H7.53501V26.5828ZM7.53501 19.9419H2.29216V14.699H7.53501V19.9419ZM27.4578 24.4857C27.4578 25.641 26.516 26.5828 25.3607 26.5828H8.9331V21.34H27.4578V24.4857ZM27.4578 19.9419H15.574V14.699H27.4578V19.9419ZM27.4578 13.3009H22.215V8.05808H27.4578V13.3009ZM27.4578 6.65999H22.215V1.41714H25.3607C26.516 1.41714 27.4578 2.35894 27.4578 3.51428V6.65999Z" fill="black"/>
<path d="M7.53501 21.34V26.5828H4.3893C3.23397 26.5828 2.29216 25.641 2.29216 24.4857V21.34H7.53501Z" fill="white"/>
<path d="M14.176 14.699H8.93311V19.9419H14.176V14.699Z" fill="white"/>
<path d="M27.4578 8.05811H22.215V13.301H27.4578V8.05811Z" fill="white"/>
<path d="M20.8169 1.41711H15.5741V6.65997H20.8169V1.41711Z" fill="white"/>
<path d="M27.4578 3.51425V6.65996H22.215V1.41711H25.3607C26.516 1.41711 27.4578 2.35892 27.4578 3.51425Z" fill="#BC70C4"/>
<path d="M7.53501 14.699H2.29216V19.9419H7.53501V14.699Z" fill="#BC70C4"/>
<path d="M27.4578 21.34V24.4857C27.4578 25.641 26.516 26.5828 25.3607 26.5828H8.93311V21.34H27.4578Z" fill="#BC70C4"/>
<path d="M27.4578 14.699H15.5741V19.9419H27.4578V14.699Z" fill="#BC70C4"/>
<path d="M20.8169 8.05811H2.29216V13.301H20.8169V8.05811Z" fill="#BC70C4"/>
<path d="M14.176 1.41711V6.65996H2.29216V3.51425C2.29216 2.35892 3.23397 1.41711 4.3893 1.41711H14.176Z" fill="#BC70C4"/>
</g>
<defs>
<clipPath id="clip0_2267_2631">
<rect x="0.875" width="28" height="28" rx="8" fill="white"/>
</clipPath>
<clipPath id="clip1_2267_2631">
<rect width="28" height="28" fill="white" transform="translate(0.875)"/>
</clipPath>
</defs>
</svg>
