<svg width="30" height="28" viewBox="0 0 30 28" fill="none" xmlns="http://www.w3.org/2000/svg">
<g clip-path="url(#clip0_2267_2231)">
<g clip-path="url(#clip1_2267_2231)">
<path d="M15.5846 9.485V5.4798C15.5846 4.68765 15.3479 3.91329 14.9044 3.25464C14.4608 2.59599 13.8304 2.08263 13.0928 1.77949C12.3553 1.47634 11.5437 1.39703 10.7607 1.55157C9.97766 1.70611 9.25843 2.08757 8.69392 2.6477C8.12941 3.20784 7.74497 3.9215 7.58922 4.69843C7.43347 5.47536 7.51341 6.28067 7.81892 7.01252C8.12443 7.74438 8.6418 8.3699 9.30559 8.81C9.96939 9.25009 10.7498 9.485 11.5481 9.485H15.5846Z" fill="white"/>
<path d="M23.8062 8.34126C24.2791 7.877 24.629 7.30397 24.8248 6.67313C25.0207 6.0423 25.0563 5.37322 24.9286 4.72541C24.801 4.07761 24.5139 3.47115 24.093 2.96C23.6721 2.44884 23.1304 2.04883 22.5161 1.79555C21.9018 1.54226 21.2339 1.44356 20.5718 1.50821C19.9098 1.57287 19.2741 1.79887 18.7214 2.16613C18.1686 2.53339 17.7159 3.03051 17.4035 3.61328C17.0911 4.19605 16.9287 4.8464 16.9307 5.50647V9.51166H20.9672C21.4948 9.51149 22.0171 9.40801 22.5043 9.20717C22.9914 9.00633 23.4339 8.71207 23.8062 8.34126V8.34126Z" fill="white"/>
<path d="M4.70888 18.6703C4.70888 22.4129 7.05004 25.3723 10.4093 26.2356V11.3096C7.11283 12.4444 4.70888 15.4083 4.70888 18.6703Z" fill="#F8CD0E"/>
<path d="M19.9581 26.5162C21.1487 26.4167 22.3067 26.0786 23.362 25.5226C24.4173 24.9665 25.3481 24.2039 26.098 23.2809C25.2761 23.4951 24.412 23.4923 23.5915 23.273C22.7709 23.0536 22.0224 22.6253 21.4202 22.0304L22.362 21.0869C23.0207 21.7379 23.9102 22.1071 24.8398 22.1154C25.7695 22.1237 26.6654 21.7705 27.3359 21.1314C27.6338 20.3447 27.7857 19.5109 27.7844 18.6705C27.8117 17.6428 27.6293 16.6203 27.2481 15.6644C26.8669 14.7086 26.2948 13.8391 25.5662 13.1082C24.8377 12.3774 23.9676 11.8003 23.0085 11.4117C22.0493 11.0231 21.0209 10.831 19.985 10.847H16.9307V26.5162H19.9581ZM21.9135 15.5909C22.1931 15.5909 22.4665 15.6732 22.6989 15.8275C22.9313 15.9817 23.1124 16.2009 23.2192 16.4573C23.326 16.7137 23.3537 16.9958 23.2988 17.2679C23.2439 17.5399 23.1089 17.7897 22.9109 17.9855C22.7129 18.1814 22.4607 18.3146 22.1864 18.3682C21.912 18.4217 21.6278 18.3933 21.3698 18.2866C21.1117 18.1798 20.8914 17.9994 20.7367 17.7683C20.582 17.5372 20.4999 17.2657 20.5008 16.9883C20.5008 16.8044 20.5373 16.6223 20.6084 16.4525C20.6794 16.2827 20.7836 16.1284 20.9148 15.9986C21.0461 15.8688 21.2019 15.766 21.3732 15.696C21.5446 15.626 21.7282 15.5903 21.9135 15.5909Z" fill="#F8CD0E"/>
<path d="M12.5355 10.8469C12.2736 10.8687 12.0131 10.9044 11.7551 10.9537V26.4805C11.9928 26.5027 12.2394 26.5161 12.4861 26.5161H15.5852V10.8424H12.5355V10.8469Z" fill="#F8CD0E"/>
<path d="M21.9136 18.3853C22.193 18.3853 22.4661 18.3031 22.6985 18.149C22.9308 17.995 23.1119 17.7761 23.2188 17.5199C23.3257 17.2638 23.3537 16.9819 23.2992 16.71C23.2447 16.4381 23.1101 16.1883 22.9125 15.9922C22.715 15.7962 22.4632 15.6627 22.1892 15.6086C21.9151 15.5545 21.6311 15.5823 21.3729 15.6884C21.1148 15.7945 20.8941 15.9741 20.7389 16.2047C20.5837 16.4352 20.5008 16.7062 20.5008 16.9835C20.5008 17.3553 20.6496 17.7118 20.9146 17.9747C21.1795 18.2376 21.5389 18.3853 21.9136 18.3853V18.3853Z" fill="black"/>
<path d="M23.5234 10.197C23.9761 9.95258 24.3914 9.64539 24.7568 9.28468C25.3002 8.7436 25.7203 8.09314 25.9887 7.37721C26.2572 6.66128 26.3677 5.89654 26.3128 5.13461C26.258 4.37267 26.039 3.63128 25.6708 2.96048C25.3025 2.28968 24.7935 1.70508 24.1781 1.24614C23.5627 0.787195 22.8552 0.464596 22.1034 0.300115C21.3516 0.135635 20.573 0.133101 19.8202 0.292685C19.0673 0.452268 18.3577 0.770255 17.7393 1.22518C17.1209 1.68011 16.608 2.26138 16.2353 2.92977C15.8288 2.18537 15.2499 1.54752 14.5461 1.06884C13.8423 0.590168 13.0339 0.284384 12.1876 0.176719C11.3413 0.0690547 10.4813 0.162594 9.67856 0.449621C8.87584 0.736648 8.15341 1.20894 7.57085 1.82752C6.98829 2.44611 6.5623 3.19327 6.32803 4.00737C6.09376 4.82146 6.05791 5.67916 6.22345 6.5097C6.389 7.34025 6.75118 8.11984 7.28013 8.78416C7.80907 9.44848 8.48962 9.97849 9.26563 10.3305C6.03645 11.71 3.67735 14.6917 3.39928 18.0115H0.869751V19.3466H3.39479C3.52034 21.6526 4.53549 23.8222 6.22976 25.4056C7.92403 26.989 10.1674 27.8646 12.4948 27.851H20.0386C25.0528 27.4593 29.1565 23.3429 29.1565 18.6702C29.1786 16.861 28.6537 15.0867 27.6496 13.5763C26.6455 12.066 25.2083 10.8889 23.5234 10.197V10.197ZM10.4093 26.2489C7.05005 25.3588 4.70889 22.4128 4.70889 18.6835C4.70889 15.4215 7.1263 12.4532 10.4093 11.3229V26.2489ZM15.585 26.5159H12.4948C12.2481 26.5159 12.0015 26.5159 11.7638 26.4803V10.9535C12.0218 10.9042 12.2823 10.8686 12.5442 10.8467H15.5939L15.585 26.5159ZM15.585 9.50274H11.5485C10.4816 9.50057 9.45853 9.08171 8.70053 8.33678C8.22764 7.87252 7.87772 7.29949 7.6819 6.66866C7.48608 6.03782 7.45042 5.36875 7.5781 4.72094C7.70578 4.07313 7.99284 3.46668 8.41375 2.95552C8.83466 2.44437 9.37636 2.04436 9.99067 1.79107C10.605 1.53779 11.2729 1.43908 11.9349 1.50374C12.5969 1.56839 13.2326 1.7944 13.7854 2.16166C14.3381 2.52891 14.7908 3.02604 15.1032 3.60881C15.4156 4.19157 15.578 4.84192 15.576 5.502L15.585 9.50274ZM16.9305 5.49755C16.9305 4.70539 17.1672 3.93103 17.6107 3.27238C18.0543 2.61373 18.6847 2.10038 19.4223 1.79723C20.1598 1.49409 20.9714 1.41477 21.7544 1.56931C22.5374 1.72386 23.2567 2.10531 23.8212 2.66545C24.3857 3.22558 24.7701 3.93924 24.9259 4.71617C25.0816 5.4931 25.0017 6.29841 24.6962 7.03027C24.3907 7.76212 23.8733 8.38764 23.2095 8.82774C22.5457 9.26784 21.7653 9.50274 20.9669 9.50274H16.9305V5.49755ZM22.3618 21.0866L21.4199 22.0301C22.0222 22.625 22.7707 23.0533 23.5912 23.2727C24.4118 23.4921 25.2758 23.4948 26.0978 23.2806C25.3466 24.2012 24.4153 24.9612 23.3601 25.515C22.3048 26.0687 21.1475 26.4047 19.9578 26.5025H16.9305V10.8423H19.9847C21.0233 10.8226 22.055 11.0122 23.0176 11.3994C23.9802 11.7866 24.8537 12.3635 25.5853 13.0952C26.3168 13.8269 26.8912 14.6982 27.2738 15.6564C27.6563 16.6146 27.8391 17.6399 27.811 18.6702C27.8124 19.5106 27.6605 20.3444 27.3625 21.1311C26.6909 21.7783 25.7891 22.1366 24.8529 22.1283C23.9167 22.1199 23.0216 21.7457 22.3618 21.0866V21.0866Z" fill="black"/>
</g>
</g>
<defs>
<clipPath id="clip0_2267_2231">
<rect x="0.5625" width="28.875" height="28" rx="8" fill="white"/>
</clipPath>
<clipPath id="clip1_2267_2231">
<rect width="28.875" height="28" fill="white" transform="translate(0.5625)"/>
</clipPath>
</defs>
</svg>
