<svg width="28" height="28" viewBox="0 0 28 28" fill="none" xmlns="http://www.w3.org/2000/svg">
<path d="M24.528 1.56168H15.1194L26.4568 12.899V3.49044C26.4593 3.23645 26.4111 2.98452 26.3151 2.74937C26.219 2.51423 26.077 2.3006 25.8974 2.12099C25.7178 1.94139 25.5042 1.79941 25.2691 1.70337C25.0339 1.60733 24.782 1.55916 24.528 1.56168V1.56168Z" fill="#6493E6"/>
<path d="M26.4381 24.5277V14.9592L14.9596 26.4377H24.5282C24.7821 26.4423 25.0345 26.3975 25.2714 26.3059C25.6195 26.1576 25.916 25.9096 26.1236 25.5932C26.3312 25.2768 26.4406 24.9061 26.4381 24.5277V24.5277Z" fill="#6493E6"/>
<path d="M1.5615 3.47147V12.913L12.913 1.56152H3.47145C2.96717 1.56882 2.48559 1.77238 2.12898 2.129C1.77236 2.48561 1.56879 2.96719 1.5615 3.47147V3.47147Z" fill="#6493E6"/>
<path d="M1.5615 24.5283C1.5615 25.0348 1.76273 25.5206 2.12091 25.8788C2.4791 26.237 2.9649 26.4382 3.47145 26.4382H13.0541L1.5615 14.9456V24.5283Z" fill="#6493E6"/>
<path d="M14.0042 2.68306L8.67521 8.01202L14.0042 13.341L19.3331 8.01202L14.0042 2.68306Z" fill="white"/>
<path d="M14.0046 14.5191L8.67564 19.8481L14.0046 25.177L19.3336 19.8481L14.0046 14.5191Z" fill="white"/>
<path d="M24.5282 0H3.47177C2.55182 -8.44548e-07 1.66947 0.365128 1.01852 1.0152C0.367572 1.66526 0.00124655 2.54711 0 3.46707V24.5329C0.00124461 25.4521 0.366924 26.3332 1.01686 26.9831C1.66679 27.6331 2.54793 27.9988 3.46707 28H24.5329C25.4525 27.9975 26.3336 27.6308 26.9834 26.9801C27.6332 26.3294 27.9988 25.4478 28 24.5282V3.47177C27.9988 2.55138 27.6326 1.66905 26.9818 1.01823C26.331 0.36742 25.4486 0.00124461 24.5282 0V0ZM14.0047 2.68145L19.3347 8.01143L14.0047 13.3414L8.67473 8.01143L14.0047 2.68145ZM1.56183 3.47177C1.56912 2.9675 1.77269 2.48592 2.1293 2.1293C2.48592 1.77269 2.9675 1.56912 3.47177 1.56183H12.9133L1.56183 12.9133V3.47177ZM13.0544 26.4382H3.47177C2.96523 26.4382 2.47942 26.2369 2.12124 25.8788C1.76305 25.5206 1.56183 25.0348 1.56183 24.5282V14.9456L13.0544 26.4382ZM13.9953 25.1774L8.67944 19.8522L14.0047 14.5457L19.3347 19.8522L14.0047 25.1774H13.9953ZM26.4288 24.5282C26.432 24.9056 26.324 25.2755 26.1182 25.5918C25.9123 25.908 25.6178 26.1566 25.2715 26.3065C25.0359 26.4045 24.7834 26.4556 24.5282 26.457H14.9597L26.4382 14.9785L26.4288 24.5282ZM26.4288 12.8992L15.1008 1.56183H24.5094C25.016 1.56183 25.5018 1.76305 25.8599 2.12124C26.2181 2.47942 26.4194 2.96523 26.4194 3.47177L26.4288 12.8992Z" fill="black"/>
<path d="M24.5278 1.56158C25.0343 1.56158 25.5201 1.76281 25.8783 2.12099C26.2365 2.47918 26.4377 2.96498 26.4377 3.47153V12.8801V3.47153C26.4377 2.96498 26.2365 2.47918 25.8783 2.12099C25.5201 1.76281 25.0343 1.56158 24.5278 1.56158V1.56158Z" fill="black"/>
<path d="M26.4383 24.5277C26.4408 24.9061 26.3313 25.2768 26.1238 25.5932C25.9162 25.9096 25.6197 26.1576 25.2716 26.3059C25.6168 26.1588 25.9112 25.9137 26.1186 25.601C26.3259 25.2883 26.4371 24.9217 26.4383 24.5465V14.9592V24.5277Z" fill="black"/>
<path d="M12.913 1.56152L1.5615 12.913L12.913 1.56152H3.47145C3.17133 1.56397 2.87616 1.63817 2.61056 1.77792C2.87616 1.63817 3.17133 1.56397 3.47145 1.56152H12.913Z" fill="black"/>
<path d="M1.5615 14.9456L13.0541 26.4382L1.5615 14.9456Z" fill="black"/>
<path d="M14.009 13.3413L19.3389 8.01137L14.009 2.6814L19.3342 8.01137L14.009 13.3413Z" fill="black"/>
</svg>
