<svg width="29" height="28" viewBox="0 0 29 28" fill="none" xmlns="http://www.w3.org/2000/svg">
<path d="M17.3955 21.9446C16.7308 22.6022 15.8334 22.9711 14.8982 22.9711C13.9631 22.9711 13.0657 22.6022 12.4009 21.9446L11.7657 21.3096C10.7759 21.719 9.71207 21.9191 8.64113 21.8973C9.03497 23.251 9.85937 24.4395 10.9894 25.2828C12.1195 26.1261 13.4937 26.5782 14.9038 26.5706C16.3139 26.563 17.6832 26.0962 18.8041 25.2408C19.925 24.3854 20.7366 23.1881 21.1159 21.8303C20.0723 21.8509 19.0353 21.6617 18.0662 21.2741L17.3955 21.9446Z" fill="#47A590"/>
<path d="M25.5347 9.3424C24.7583 8.57241 23.7983 8.0131 22.7455 7.71735C22.7638 8.787 22.5665 9.8494 22.1655 10.8412L22.8323 11.5078C23.49 12.1724 23.8589 13.0696 23.8589 14.0046C23.8589 14.9395 23.49 15.8367 22.8323 16.5013L22.1813 17.1521C22.5583 18.0874 22.7525 19.0862 22.7534 20.0946C22.7553 20.1222 22.7553 20.1499 22.7534 20.1774C23.8423 19.8682 24.8311 19.2792 25.6214 18.4689C26.4117 17.6587 26.9758 16.6555 27.2576 15.5594C27.5393 14.4633 27.5289 13.3126 27.2273 12.2218C26.9257 11.131 26.3435 10.1382 25.5387 9.3424H25.5347Z" fill="#47A590"/>
<path d="M7.55616 17.1051L6.94859 16.5174C6.29087 15.8528 5.92195 14.9556 5.92195 14.0207C5.92195 13.0857 6.29087 12.1885 6.94859 11.5239L7.56799 10.9047C7.16976 9.94723 6.96592 8.92021 6.96832 7.88331V7.80048C5.61256 8.18554 4.41939 9.00216 3.5698 10.1265C2.72021 11.2508 2.26056 12.6214 2.26056 14.0305C2.26056 15.4396 2.72021 16.8103 3.5698 17.9346C4.41939 19.0589 5.61256 19.8755 6.96832 20.2606C6.96832 20.2093 6.96832 20.162 6.96832 20.1107C6.96446 19.0799 7.16423 18.0585 7.55616 17.1051V17.1051Z" fill="#47A590"/>
<path d="M11.7422 6.71955L12.3931 6.06874C12.7205 5.73982 13.1097 5.47882 13.5382 5.30072C13.9668 5.12263 14.4263 5.03094 14.8905 5.03094C15.3546 5.03094 15.8141 5.12263 16.2427 5.30072C16.6713 5.47882 17.0604 5.73982 17.3878 6.06874L17.9756 6.65644C18.9606 6.24912 20.0186 6.04777 21.0844 6.06479C20.7809 5.01997 20.2161 4.06972 19.4432 3.30377C18.642 2.50391 17.6453 1.92768 16.5522 1.63239C15.4591 1.33711 14.3078 1.33305 13.2127 1.62063C12.1175 1.90821 11.1168 2.47741 10.31 3.27161C9.50311 4.06581 8.91828 5.05735 8.61363 6.14762H8.74382C9.77085 6.14273 10.7891 6.33696 11.7422 6.71955V6.71955Z" fill="#47A590"/>
<path d="M8.38855 7.55187C8.38855 7.65442 8.38855 7.76092 8.38855 7.86742C8.3882 8.51849 8.48527 9.16595 8.67655 9.7883L10.6492 7.81614C9.91718 7.59512 9.15179 7.50564 8.38855 7.55187V7.55187Z" fill="white"/>
<path d="M19.171 20.1621C19.8725 20.3659 20.6032 20.4512 21.3329 20.4145C21.3329 20.308 21.3329 20.2015 21.3329 20.095C21.3331 19.4728 21.2441 18.8539 21.0686 18.257L19.171 20.1621Z" fill="white"/>
<path d="M21.3409 7.48087C20.583 7.44352 19.8245 7.53965 19.1 7.76486L21.0726 9.73702C21.2935 9.00648 21.3843 8.24283 21.3409 7.48087V7.48087Z" fill="white"/>
<path d="M8.39288 20.4813C9.15462 20.5192 9.91709 20.423 10.6456 20.1973L8.67299 18.2252C8.48947 18.8368 8.39643 19.472 8.39683 20.1105C8.38105 20.2249 8.38499 20.3511 8.39288 20.4813Z" fill="white"/>
<path d="M16.7286 7.30349L16.705 7.27588V7.31532L16.7286 7.30349Z" fill="#54E984"/>
<path d="M16.7999 20.635L16.7605 20.6074L16.7092 20.7297L16.7999 20.635Z" fill="#54E984"/>
<path d="M19.4431 15.5155C19.0856 15.162 18.6885 14.8509 18.2595 14.5886C18.137 15.2801 17.8074 15.9181 17.3143 16.4182C16.8211 16.9183 16.1877 17.2568 15.4979 17.3891C15.7612 17.8123 16.0737 18.2029 16.4289 18.5527C16.8491 18.9669 17.3244 19.3213 17.8413 19.6058L18.516 18.9274L19.6995 17.7441L20.4886 16.9552C20.207 16.4301 19.8553 15.9458 19.4431 15.5155V15.5155Z" fill="#54E984"/>
<path d="M20.1928 10.7626L18.0071 8.57743L17.7625 8.33289C16.8113 8.86895 16.0138 9.64041 15.4467 10.5733C16.1466 10.6926 16.793 11.0241 17.2983 11.5229C17.8035 12.0217 18.1432 12.6636 18.2714 13.3619C19.1958 12.7933 19.9591 11.9976 20.4886 11.0505L20.1928 10.7626Z" fill="#54E984"/>
<path d="M13.3006 9.41762C12.8982 9.02259 12.4459 8.68181 11.9553 8.40393L11.6554 8.70764L9.2883 11.0742L9.25674 11.1058C9.78826 12.029 10.5423 12.8046 11.4503 13.3619C11.5769 12.6693 11.9117 12.0318 12.4101 11.5342C12.9084 11.0367 13.5466 10.7029 14.2395 10.5772C13.9726 10.1556 13.6575 9.7664 13.3006 9.41762V9.41762Z" fill="#54E984"/>
<path d="M11.4504 14.5886C10.5262 15.1624 9.76314 15.9619 9.23322 16.9118L9.39102 17.0696L11.7187 19.3928L11.9672 19.6452C12.4744 19.3585 12.9403 19.0042 13.352 18.5921C13.7028 18.2343 14.0113 17.8372 14.2712 17.4088C13.5674 17.2873 12.9184 16.951 12.4134 16.4461C11.9083 15.9411 11.5719 15.2923 11.4504 14.5886V14.5886Z" fill="#54E984"/>
<path d="M14.8903 6.37265C14.3088 6.37382 13.7514 6.60495 13.3398 7.01557L12.9887 7.36661C13.4585 7.66659 13.8961 8.01422 14.2946 8.40397C14.4839 8.5933 14.6615 8.7984 14.8351 8.99956C15.0009 8.78966 15.1788 8.58948 15.3677 8.40002C15.7767 7.99059 16.2291 7.62689 16.7169 7.31534V7.27589L16.4526 7.01557C16.2476 6.81048 16.004 6.64805 15.7358 6.5377C15.4677 6.42734 15.1803 6.37124 14.8903 6.37265Z" fill="#B5DD35"/>
<path d="M14.8865 18.9667C14.7196 19.1745 14.5418 19.3733 14.3539 19.5623C13.9446 19.9754 13.4908 20.3419 13.0007 20.6549L13.34 20.9981C13.7523 21.407 14.3096 21.6365 14.8904 21.6365C15.4713 21.6365 16.0286 21.407 16.4409 20.9981L16.7092 20.7298L16.7605 20.6076C16.2784 20.3052 15.83 19.9522 15.423 19.5544C15.2341 19.368 15.055 19.1718 14.8865 18.9667Z" fill="#B5DD35"/>
<path d="M21.5381 15.9019L21.8853 15.5548C22.2943 15.1426 22.5239 14.5854 22.5239 14.0047C22.5239 13.424 22.2943 12.8669 21.8853 12.4546L21.5183 12.0917C21.069 12.8096 20.5037 13.448 19.8456 13.9811C20.0533 14.1494 20.2522 14.3285 20.4413 14.5175C20.8579 14.9362 21.2258 15.4006 21.5381 15.9019V15.9019Z" fill="#B5DD35"/>
<path d="M8.2228 12.1313L7.89535 12.4548C7.48627 12.867 7.25672 13.4242 7.25672 14.0049C7.25672 14.5856 7.48627 15.1428 7.89535 15.555L8.20702 15.8627C8.51476 15.3767 8.87458 14.9257 9.28012 14.5177C9.46924 14.3286 9.66808 14.1496 9.87585 13.9812C9.66808 13.8129 9.46924 13.6338 9.28012 13.4448C8.88327 13.0447 8.52894 12.6045 8.2228 12.1313V12.1313Z" fill="#B5DD35"/>
<path d="M17.0011 13.9811C17.0011 13.5575 16.8755 13.1434 16.6401 12.7912C16.4047 12.439 16.0701 12.1645 15.6787 12.0024C15.2872 11.8403 14.8565 11.7979 14.4409 11.8805C14.0254 11.9632 13.6437 12.1671 13.3441 12.4667C13.0445 12.7662 12.8405 13.1478 12.7578 13.5633C12.6751 13.9787 12.7176 14.4094 12.8797 14.8007C13.0418 15.1921 13.3164 15.5266 13.6687 15.7619C14.021 15.9973 14.4352 16.1229 14.8589 16.1229C15.427 16.1229 15.9719 15.8972 16.3737 15.4956C16.7754 15.0939 17.0011 14.5491 17.0011 13.9811Z" fill="white"/>
<path d="M26.5248 8.34068C25.4447 7.26554 24.0731 6.53052 22.5796 6.22653C22.1982 4.45743 21.22 2.87323 19.809 1.73957C18.3981 0.605921 16.6401 -0.00823912 14.83 8.34859e-05C13.0199 0.00840609 11.2677 0.638705 9.86719 1.78528C8.46671 2.93186 7.50313 4.525 7.13804 6.29753C5.36689 6.67076 3.77794 7.64146 2.63764 9.04686C1.49733 10.4523 0.875 12.2069 0.875 14.0165C0.875 15.8262 1.49733 17.5808 2.63764 18.9862C3.77794 20.3916 5.36689 21.3623 7.13804 21.7356C7.5121 23.513 8.48821 25.107 9.90156 26.2483C11.3149 27.3895 13.0789 28.0083 14.8956 27.9999C16.7124 27.9916 18.4706 27.3567 19.8734 26.2025C21.2762 25.0482 22.2376 23.4454 22.5954 21.6646C23.9908 21.3736 25.2814 20.7102 26.3299 19.7447C27.3785 18.7793 28.1458 17.5478 28.5504 16.1813C28.9551 14.8148 28.9819 13.3642 28.628 11.9836C28.2741 10.6031 27.5527 9.34419 26.5406 8.34068H26.5248ZM21.0567 9.73302L19.0841 7.76087C19.8139 7.53514 20.5779 7.44033 21.3408 7.48082C21.3786 8.24239 21.2825 9.00469 21.0567 9.73302ZM11.7184 19.3729L9.39075 17.0497L9.23294 16.892C9.76555 15.9492 10.5283 15.1568 11.4501 14.5885C11.5746 15.2893 11.9123 15.9346 12.4171 16.4365C12.9219 16.9384 13.5693 17.2724 14.271 17.3929C14.011 17.8213 13.7026 18.2183 13.3517 18.5762C12.94 18.9883 12.4741 19.3426 11.967 19.6293L11.7184 19.3729ZM14.8351 8.99938C14.6615 8.79033 14.484 8.60495 14.2946 8.40379C13.8962 8.01404 13.4586 7.66642 12.9888 7.36644L13.3399 7.01539C13.5433 6.81146 13.785 6.64966 14.051 6.53925C14.3171 6.42885 14.6023 6.37203 14.8904 6.37203C15.1784 6.37203 15.4637 6.42885 15.7297 6.53925C15.9958 6.64966 16.2374 6.81146 16.4408 7.01539L16.7052 7.27572L16.7288 7.30333C16.2411 7.61488 15.7886 7.97858 15.3796 8.38801C15.1863 8.58096 15.0045 8.7851 14.8351 8.99938V8.99938ZM17.0011 13.9811C17.0018 14.4048 16.8769 14.8193 16.6419 15.172C16.407 15.5248 16.0727 15.7999 15.6813 15.9626C15.29 16.1253 14.8591 16.1683 14.4433 16.0861C14.0275 16.0039 13.6454 15.8002 13.3454 15.5008C13.0454 15.2015 12.841 14.8199 12.758 14.4043C12.675 13.9887 12.7172 13.5579 12.8793 13.1663C13.0413 12.7747 13.3159 12.44 13.6682 12.2045C14.0206 11.9689 14.4349 11.8432 14.8588 11.8432C15.4263 11.8432 15.9706 12.0683 16.3722 12.4691C16.7738 12.87 17 13.4137 17.0011 13.9811V13.9811ZM13.3004 9.41748C13.6575 9.77385 13.9713 10.171 14.2355 10.6008C13.5465 10.7256 12.9115 11.0563 12.4143 11.5492C11.917 12.0421 11.5809 12.674 11.4501 13.3618C10.5388 12.8005 9.78319 12.0193 9.25267 11.0899L9.28423 11.0583L11.6514 8.69173L11.9512 8.38801C12.4442 8.67048 12.8978 9.01661 13.3004 9.41748ZM14.3538 19.5701C14.5417 19.3811 14.7195 19.1823 14.8864 18.9746C15.0551 19.177 15.2342 19.3705 15.423 19.5544C15.8287 19.9519 16.2757 20.3049 16.7564 20.6075L16.7959 20.6351L16.7052 20.7298L16.4369 20.998C16.0246 21.407 15.4673 21.6365 14.8864 21.6365C14.3056 21.6365 13.7483 21.407 13.336 20.998L12.9967 20.6548C13.4881 20.342 13.9433 19.9756 14.3538 19.5623V19.5701ZM16.4211 18.5604C16.0659 18.2107 15.7533 17.8201 15.49 17.3968C16.1799 17.2646 16.8133 16.926 17.3064 16.4259C17.7996 15.9259 18.1292 15.2879 18.2517 14.5964C19.1895 15.1638 19.9675 15.9606 20.5123 16.9117L19.7232 17.7005L18.5397 18.8838L17.8651 19.5623C17.3396 19.2936 16.8537 18.9538 16.4211 18.5525V18.5604ZM18.2714 13.3618C18.1454 12.6614 17.8067 12.0168 17.3012 11.5157C16.7958 11.0146 16.1482 10.6814 15.4466 10.5613C16.0138 9.62848 16.8113 8.85702 17.7625 8.32096L18.0071 8.56551L20.1927 10.7507L20.4886 11.0504C19.959 11.9975 19.1957 12.7932 18.2714 13.3618V13.3618ZM10.2942 3.28802C11.5097 2.07335 13.158 1.39101 14.8766 1.39101C16.5952 1.39101 18.2434 2.07335 19.4589 3.28802C20.2318 4.05397 20.7966 5.00421 21.1001 6.04903C20.0279 6.03484 18.9643 6.24161 17.9755 6.65646L17.3956 6.06876C17.0682 5.73984 16.6791 5.47884 16.2505 5.30074C15.8219 5.12265 15.3624 5.03096 14.8983 5.03096C14.4341 5.03096 13.9746 5.12265 13.546 5.30074C13.1175 5.47884 12.7283 5.73984 12.4009 6.06876L11.75 6.71957C10.798 6.33158 9.7797 6.13199 8.75163 6.13187H8.62144C8.92212 5.05459 9.49869 4.07436 10.2942 3.28802V3.28802ZM8.38867 7.55182C9.14736 7.51129 9.90725 7.60475 10.6335 7.82792L8.66089 9.80008C8.46961 9.17773 8.37254 8.53027 8.37289 7.8792C8.38078 7.76087 8.38472 7.65437 8.38867 7.55182ZM6.96839 20.0947C6.96839 20.146 6.96839 20.1933 6.96839 20.2446C5.61263 19.8596 4.41946 19.0429 3.56988 17.9186C2.72029 16.7943 2.26063 15.4237 2.26063 14.0146C2.26063 12.6055 2.72029 11.2348 3.56988 10.1105C4.41946 8.98622 5.61263 8.1696 6.96839 7.78453V7.86736C6.96599 8.90426 7.16984 9.93129 7.56807 10.8887L6.94867 11.508C6.29094 12.1726 5.92202 13.0698 5.92202 14.0047C5.92202 14.9397 6.29094 15.8369 6.94867 16.5015L7.55623 17.1049C7.16634 18.0534 6.96661 19.0693 6.96839 20.0947V20.0947ZM7.89552 15.5548C7.48644 15.1426 7.25689 14.5854 7.25689 14.0047C7.25689 13.424 7.48644 12.8668 7.89552 12.4546L8.22297 12.1312C8.52911 12.6043 8.88343 13.0445 9.28028 13.4446C9.4694 13.6337 9.66825 13.8127 9.87601 13.9811C9.66825 14.1494 9.4694 14.3284 9.28028 14.5175C8.87475 14.9255 8.51492 15.3765 8.20719 15.8625L7.89552 15.5548ZM8.38078 20.0947C8.38038 19.4562 8.47342 18.821 8.65694 18.2094L10.6295 20.1815C9.90105 20.4072 9.13857 20.5033 8.37683 20.4655C8.38472 20.3511 8.38078 20.2249 8.38078 20.0947V20.0947ZM19.4274 24.6741C18.6314 25.4698 17.642 26.0447 16.5564 26.3423C15.4709 26.6398 14.3266 26.6498 13.236 26.3713C12.1454 26.0927 11.1461 25.5352 10.3363 24.7535C9.52655 23.9719 8.93419 22.993 8.61749 21.9131C9.68843 21.9349 10.7523 21.7348 11.7421 21.3254L12.3773 21.9604C13.042 22.618 13.9394 22.9868 14.8746 22.9868C15.8097 22.9868 16.7071 22.618 17.3719 21.9604L18.0426 21.2899C19.0116 21.6775 20.0487 21.8666 21.0922 21.846C20.7943 22.9145 20.2264 23.8885 19.4431 24.6741H19.4274ZM21.3408 20.4142C20.6111 20.4509 19.8804 20.3656 19.1788 20.1618L21.0843 18.2567C21.2572 18.854 21.3435 19.473 21.3408 20.0947C21.3408 20.2012 21.3408 20.3077 21.3408 20.4142ZM21.5459 15.9019C21.2337 15.4006 20.8658 14.9362 20.4492 14.5175C20.26 14.3284 20.0612 14.1494 19.8534 13.9811C20.5116 13.448 21.0769 12.8096 21.5262 12.0917L21.8931 12.4546C22.3022 12.8668 22.5317 13.424 22.5317 14.0047C22.5317 14.5854 22.3022 15.1426 21.8931 15.5548L21.5459 15.9019ZM25.5858 18.4894C24.8017 19.2847 23.8242 19.8624 22.7492 20.1657C22.7512 20.1382 22.7512 20.1105 22.7492 20.0829C22.7484 19.0745 22.5542 18.0757 22.1772 17.1404L22.8321 16.5172C23.4898 15.8526 23.8587 14.9554 23.8587 14.0205C23.8587 13.0856 23.4898 12.1884 22.8321 11.5237L22.1653 10.8572C22.5664 9.86531 22.7636 8.80291 22.7453 7.73326C23.8233 8.04276 24.8024 8.62676 25.5869 9.42812C26.3714 10.2295 26.9343 11.2207 27.2206 12.3049C27.5069 13.389 27.5068 14.5289 27.2202 15.613C26.9337 16.6971 26.3705 17.6882 25.5858 18.4894V18.4894Z" fill="black"/>
</svg>
