<svg width="24" height="24" viewBox="0 0 24 24" fill="none" xmlns="http://www.w3.org/2000/svg">
<path d="M19.6502 13.0029C19.6888 12.6815 19.7145 12.3472 19.7145 12.0001C19.7145 11.6529 19.6888 11.3186 19.6373 10.9972L21.8102 9.3C22.0031 9.14571 22.0545 8.86285 21.9388 8.64427L19.8816 5.08276C19.753 4.85133 19.483 4.77418 19.2516 4.85133L16.693 5.87992C16.153 5.46849 15.5872 5.13419 14.9572 4.87704L14.5715 2.15126C14.5329 1.89412 14.3143 1.71411 14.0572 1.71411H9.94281C9.68566 1.71411 9.47994 1.89412 9.44137 2.15126L9.05565 4.87704C8.42563 5.13419 7.84705 5.48134 7.31989 5.87992L4.76126 4.85133C4.52982 4.76133 4.25982 4.85133 4.13124 5.08276L2.07405 8.64427C1.94548 8.87571 1.99691 9.14571 2.20263 9.3L4.37554 10.9972C4.32411 11.3186 4.28553 11.6658 4.28553 12.0001C4.28553 12.3344 4.31125 12.6815 4.36268 13.0029L2.18977 14.7001C1.99691 14.8544 1.94548 15.1373 2.0612 15.3559L4.11839 18.9174C4.24696 19.1488 4.51697 19.226 4.7484 19.1488L7.30703 18.1202C7.84705 18.5317 8.41277 18.8659 9.04279 19.1231L9.42851 21.8489C9.47994 22.106 9.68566 22.286 9.94281 22.286H14.0572C14.3143 22.286 14.5329 22.106 14.5586 21.8489L14.9444 19.1231C15.5744 18.8659 16.153 18.5188 16.6801 18.1202L19.2387 19.1488C19.4702 19.2388 19.7402 19.1488 19.8688 18.9174L21.9259 15.3559C22.0545 15.1244 22.0031 14.8544 21.7974 14.7001L19.6502 13.0029ZM12 15.8573C9.87852 15.8573 8.14277 14.1215 8.14277 12.0001C8.14277 9.87859 9.87852 8.14283 12 8.14283C14.1215 8.14283 15.8572 9.87859 15.8572 12.0001C15.8572 14.1215 14.1215 15.8573 12 15.8573Z" fill="#121212"/>
</svg>
